<svg width="20" height="21" viewBox="0 0 20 21" fill="none" xmlns="http://www.w3.org/2000/svg">
<path d="M10 20.9102C15.4492 20.9102 19.9609 16.3984 19.9609 10.9492C19.9609 5.50977 15.4395 0.988281 9.99023 0.988281C4.55078 0.988281 0.0390606 5.50977 0.0390606 10.9492C0.0390606 16.3984 4.56054 20.9102 10 20.9102ZM9.91211 7.47266C9.20898 7.47266 8.64258 6.90625 8.64258 6.20312C8.64258 5.49023 9.20898 4.92383 9.91211 4.92383C10.625 4.92383 11.1816 5.49023 11.1816 6.20312C11.1816 6.90625 10.625 7.47266 9.91211 7.47266ZM8.29101 16.3203C7.89062 16.3203 7.57812 16.0371 7.57812 15.6367C7.57812 15.2559 7.89062 14.9531 8.29101 14.9531H9.50195L9.50195 10.4707H8.45703C8.05664 10.4707 7.74414 10.1875 7.74414 9.78711C7.74414 9.40625 8.05664 9.10352 8.45703 9.10352H10.293C10.791 9.10352 11.0547 9.45508 11.0547 9.98242L11.0547 14.9531H12.2656C12.666 14.9531 12.9785 15.2559 12.9785 15.6367C12.9785 16.0371 12.666 16.3203 12.2656 16.3203H8.29101Z" fill="#697079"/>
</svg>
