<svg width="10" height="16" viewBox="0 0 10 16" fill="none" xmlns="http://www.w3.org/2000/svg">
<path d="M7.76416 14.9878C7.90527 15.1289 8.08789 15.2119 8.30371 15.2119C8.73535 15.2119 9.05908 14.8882 9.05908 14.4565C9.05908 14.249 8.97607 14.0581 8.84326 13.917L2.80029 8.00684L8.84326 2.09668C8.97607 1.95557 9.05908 1.75635 9.05908 1.55713C9.05908 1.12549 8.73535 0.793457 8.30371 0.793457C8.08789 0.793457 7.90527 0.876465 7.76416 1.01758L1.18994 7.45068C1.03223 7.5835 0.940918 7.79102 0.940918 8.00684C0.940918 8.21436 1.02393 8.40527 1.18164 8.56299L7.76416 14.9878Z" />
</svg>
