<svg width="19" height="21" viewBox="0 0 19 21" fill="currentColor" xmlns="http://www.w3.org/2000/svg">
<path d="M2.36768 16.4897H17.0723C17.9443 16.4897 18.4731 16.0352 18.4731 15.3672C18.4731 14.4395 17.5269 13.6045 16.729 12.7788C16.1167 12.1387 15.9497 10.8213 15.8755 9.75439C15.8105 6.19189 14.8643 3.7334 12.3965 2.84277C12.0439 1.63672 11.0884 0.671875 9.71533 0.671875C8.35156 0.671875 7.38672 1.63672 7.04346 2.84277C4.57568 3.7334 3.62939 6.19189 3.56445 9.75439C3.49023 10.8213 3.32324 12.1387 2.71094 12.7788C1.90381 13.6045 0.966797 14.4395 0.966797 15.3672C0.966797 16.0352 1.48633 16.4897 2.36768 16.4897ZM9.71533 20.2007C11.2925 20.2007 12.4429 19.0503 12.5635 17.7515H6.87646C6.99707 19.0503 8.14746 20.2007 9.71533 20.2007Z" />
</svg>
