<svg width="18" height="16" viewBox="0 0 18 16" fill="#697079" xmlns="http://www.w3.org/2000/svg">
    <path d="M3.33056 15.6602H14.6694C16.4043 15.6602 17.2676 14.7969 17.2676 13.0869L17.2676 2.95166C17.2676 1.2417 16.4043 0.378418 14.6694 0.378418L3.33056 0.378418C1.5957 0.378418 0.724119 1.2334 0.724119 2.95166L0.724119 13.0869C0.724119 14.8052 1.5957 15.6602 3.33056 15.6602ZM3.20605 14.3237C2.46728 14.3237 2.06054 13.9336 2.06054 13.1616L2.06054 5.33398C2.06054 4.57031 2.46728 4.17187 3.20605 4.17187H14.7773C15.5161 4.17187 15.9312 4.57031 15.9312 5.33398L15.9312 13.1616C15.9312 13.9336 15.5161 14.3237 14.7773 14.3237H3.20605ZM7.37304 7.15186H7.86279C8.15332 7.15186 8.25293 7.06885 8.25293 6.77832L8.25293 6.28857C8.25293 5.99805 8.15332 5.90674 7.86279 5.90674H7.37304C7.08252 5.90674 6.98291 5.99805 6.98291 6.28857L6.98291 6.77832C6.98291 7.06885 7.08252 7.15186 7.37304 7.15186ZM10.1372 7.15186H10.6187C10.9092 7.15186 11.0088 7.06885 11.0088 6.77832L11.0088 6.28857C11.0088 5.99805 10.9092 5.90674 10.6187 5.90674H10.1372C9.83838 5.90674 9.74707 5.99805 9.74707 6.28857L9.74707 6.77832C9.74707 7.06885 9.83838 7.15186 10.1372 7.15186ZM12.8931 7.15186H13.3828C13.6733 7.15186 13.7646 7.06885 13.7646 6.77832L13.7646 6.28857C13.7646 5.99805 13.6733 5.90674 13.3828 5.90674H12.8931C12.6025 5.90674 12.5029 5.99805 12.5029 6.28857L12.5029 6.77832C12.5029 7.06885 12.6025 7.15186 12.8931 7.15186ZM4.61719 9.86621H5.10693C5.39746 9.86621 5.48877 9.7832 5.48877 9.49268L5.48877 9.00293C5.48877 8.7124 5.39746 8.62939 5.10693 8.62939H4.61719C4.32666 8.62939 4.22705 8.7124 4.22705 9.00293L4.22705 9.49268C4.22705 9.7832 4.32666 9.86621 4.61719 9.86621ZM7.37304 9.86621H7.86279C8.15332 9.86621 8.25293 9.7832 8.25293 9.49268L8.25293 9.00293C8.25293 8.7124 8.15332 8.62939 7.86279 8.62939H7.37304C7.08252 8.62939 6.98291 8.7124 6.98291 9.00293L6.98291 9.49268C6.98291 9.7832 7.08252 9.86621 7.37304 9.86621ZM10.1372 9.86621H10.6187C10.9092 9.86621 11.0088 9.7832 11.0088 9.49268L11.0088 9.00293C11.0088 8.7124 10.9092 8.62939 10.6187 8.62939H10.1372C9.83838 8.62939 9.74707 8.7124 9.74707 9.00293L9.74707 9.49268C9.74707 9.7832 9.83838 9.86621 10.1372 9.86621ZM12.8931 9.86621H13.3828C13.6733 9.86621 13.7646 9.7832 13.7646 9.49268L13.7646 9.00293C13.7646 8.7124 13.6733 8.62939 13.3828 8.62939H12.8931C12.6025 8.62939 12.5029 8.7124 12.5029 9.00293L12.5029 9.49268C12.5029 9.7832 12.6025 9.86621 12.8931 9.86621ZM4.61719 12.5889H5.10693C5.39746 12.5889 5.48877 12.4976 5.48877 12.207L5.48877 11.7173C5.48877 11.4268 5.39746 11.3437 5.10693 11.3437H4.61719C4.32666 11.3437 4.22705 11.4268 4.22705 11.7173L4.22705 12.207C4.22705 12.4976 4.32666 12.5889 4.61719 12.5889ZM7.37304 12.5889H7.86279C8.15332 12.5889 8.25293 12.4976 8.25293 12.207L8.25293 11.7173C8.25293 11.4268 8.15332 11.3437 7.86279 11.3437H7.37304C7.08252 11.3437 6.98291 11.4268 6.98291 11.7173L6.98291 12.207C6.98291 12.4976 7.08252 12.5889 7.37304 12.5889ZM10.1372 12.5889H10.6187C10.9092 12.5889 11.0088 12.4976 11.0088 12.207L11.0088 11.7173C11.0088 11.4268 10.9092 11.3437 10.6187 11.3437H10.1372C9.83838 11.3437 9.74707 11.4268 9.74707 11.7173L9.74707 12.207C9.74707 12.4976 9.83838 12.5889 10.1372 12.5889Z" />
</svg>
