<!-- Generated by IcoMoon.io -->
<svg version="1.1" xmlns="http://www.w3.org/2000/svg" fill="currentColor" width="55" height="32" viewBox="0 0 55 32">
<title>chevron-up</title>
<path d="M27.429 1.335c-0.781 0-1.563 0.313-2.094 0.906l-24.188 24.781c-0.531 0.531-0.844 1.219-0.844 2 0 1.625 1.219 2.875 2.844 2.875 0.781 0 1.5-0.313 2.031-0.812l22.25-22.75 22.281 22.75c0.5 0.5 1.219 0.812 2.032 0.812 1.625 0 2.843-1.25 2.843-2.875 0-0.781-0.312-1.469-0.843-2.031l-24.188-24.75c-0.594-0.594-1.313-0.906-2.125-0.906z"></path>
</svg>
