<!-- Generated by IcoMoon.io -->
<svg version="1.1" xmlns="http://www.w3.org/2000/svg" fill="currentColor" width="20" height="32" viewBox="0 0 20 32">
<title>chevron-right</title>
<path d="M3.149 29.551c0.438 0 0.808-0.168 1.094-0.454l13.344-13.041c0.32-0.32 0.488-0.707 0.488-1.127 0-0.438-0.168-0.841-0.488-1.127l-13.327-13.024c-0.303-0.303-0.673-0.471-1.111-0.471-0.875 0-1.531 0.673-1.531 1.548 0 0.404 0.168 0.808 0.438 1.094l12.25 11.981-12.25 11.981c-0.269 0.286-0.438 0.673-0.438 1.094 0 0.875 0.656 1.548 1.531 1.548z"></path>
</svg>
