<!-- Generated by IcoMoon.io -->
<svg version="1.1" xmlns="http://www.w3.org/2000/svg" fill="currentColor" width="55" height="32" viewBox="0 0 55 32">
<title>chevron-down</title>
<path d="M27.429 30.665c0.781 0 1.562-0.313 2.094-0.906l24.187-24.781c0.531-0.531 0.844-1.219 0.844-2 0-1.625-1.219-2.875-2.844-2.875-0.781 0-1.5 0.313-2.031 0.813l-22.25 22.75-22.281-22.75c-0.5-0.5-1.219-0.813-2.031-0.813-1.625 0-2.844 1.25-2.844 2.875 0 0.781 0.313 1.469 0.844 2.031l24.187 24.75c0.594 0.594 1.313 0.906 2.125 0.906z"></path>
</svg>
