<!-- Generated by IcoMoon.io -->
<svg version="1.1" fill="#697079" xmlns="http://www.w3.org/2000/svg" width="640" height="1024" viewBox="0 0 640 1024">
    <path d="M496.906 959.219c9.031 9.030 20.719 14.342 34.531 14.342 27.625 0 48.344-20.717 48.344-48.346 0-13.28-5.313-25.498-13.812-34.528l-386.75-378.25 386.75-378.25c8.5-9.031 13.812-21.781 13.812-34.531 0-27.625-20.719-48.875-48.344-48.875-13.812 0-25.5 5.313-34.531 14.344l-420.75 411.718c-10.093 8.5-15.937 21.782-15.937 35.594 0 13.281 5.313 25.5 15.406 35.594l421.281 411.188z"></path>
</svg>
