<!-- Generated by IcoMoon.io -->
<svg version="1.1" xmlns="http://www.w3.org/2000/svg" fill="currentColor" width="32" height="32" viewBox="0 0 32 32">
<title>circle-check</title>
<path d="M15.936 31.86c8.506 0 15.549-7.043 15.549-15.549 0-8.491-7.058-15.549-15.564-15.549-8.491 0-15.534 7.058-15.534 15.549 0 8.506 7.058 15.549 15.549 15.549zM15.936 29.268c-7.195 0-12.942-5.762-12.942-12.957 0-7.18 5.732-12.957 12.927-12.957s12.957 5.777 12.973 12.957c0.015 7.195-5.762 12.957-12.957 12.957zM14.015 23.933c0.503 0 0.915-0.244 1.235-0.716l7.53-11.845c0.198-0.305 0.366-0.655 0.366-0.991 0-0.701-0.61-1.128-1.25-1.128-0.396 0-0.793 0.229-1.067 0.686l-6.875 11.021-3.537-4.573c-0.351-0.457-0.716-0.625-1.128-0.625-0.671 0-1.204 0.549-1.204 1.235 0 0.335 0.137 0.656 0.366 0.945l4.253 5.274c0.412 0.503 0.808 0.716 1.311 0.716z"></path>
</svg>
