<svg width="150" height="151" viewBox="0 0 150 151" fill="none" xmlns="http://www.w3.org/2000/svg">
<path d="M74 11.1289L82.1665 16.0732L91.6034 14.6304L97.2562 22.3236L106.527 24.602L108.805 33.8727L116.498 39.5255L115.056 48.9624L120 57.1289L115.056 65.2954L116.498 74.7323L108.805 80.3851L106.527 89.6558L97.2562 91.9342L91.6034 99.6274L82.1665 98.1846L74 103.129L65.8335 98.1846L56.3966 99.6274L50.7438 91.9342L41.4731 89.6558L39.1947 80.3851L31.5015 74.7323L32.9443 65.2954L28 57.1289L32.9443 48.9624L31.5015 39.5255L39.1947 33.8727L41.4731 24.602L50.7438 22.3236L56.3966 14.6304L65.8335 16.0732L74 11.1289Z" stroke="#000" stroke-width="2"/>
<path d="M98 92.3926L111.65 131.568L97.0464 131.591L83.4994 141.875L68.5 99.8926" stroke="#000" stroke-width="2" stroke-linecap="round" stroke-linejoin="round"/>
<path d="M40.5 131.393L53.5 96.3926L55.5 99.3926L62.5 98.3926L68 99.3926C70.8333 106.893 76.5 121.993 76.5 122.393C76.5 122.793 70.8333 135.226 68 141.393L56.5 131.393H40.5Z" fill="#000"/>
<path d="M76.1062 122.164L68.9653 141.876L57.7832 132.448L40.8379 131.57L53.5 96.3926" stroke="#000" stroke-width="2" stroke-linecap="round" stroke-linejoin="round"/>
</svg>
