<svg width="24" height="24" viewBox="0 0 24 24" fill="none" xmlns="http://www.w3.org/2000/svg">
<path fill-rule="evenodd" clip-rule="evenodd" d="M16.4771 16.1653C16.671 16.0748 16.9016 16.1586 16.9921 16.3526C17.5618 17.5733 18.1547 18.8444 18.6052 19.8103L19.3635 21.4364C19.4269 21.5724 19.4063 21.7333 19.3103 21.8487C19.2142 21.964 19.0602 22.0135 18.915 21.9757L16.3337 21.3044L15.1849 23.7128C15.1202 23.8483 14.9832 23.9343 14.8331 23.9335C14.6831 23.9327 14.5469 23.8454 14.4837 23.7093L14.8351 23.546C14.4837 23.7093 14.4837 23.7093 14.4837 23.7093L14.3422 23.405C14.2515 23.2101 14.121 22.9297 13.9617 22.5878C13.643 21.904 13.2091 20.9742 12.7481 19.9902C12.6573 19.7964 12.7408 19.5657 12.9346 19.4749C13.1284 19.3841 13.3591 19.4676 13.4499 19.6614C13.9112 20.646 14.3454 21.5763 14.6642 22.2604C14.7274 22.396 14.786 22.522 14.8395 22.6367L15.7719 20.682C15.8518 20.5144 16.0395 20.4271 16.2192 20.4738L18.3134 21.0185L17.9028 20.1379C17.4523 19.172 16.8594 17.901 16.2898 16.6803C16.1993 16.4864 16.2831 16.2558 16.4771 16.1653Z" />
<path fill-rule="evenodd" clip-rule="evenodd" d="M8.7333 14.5237C8.92724 14.6142 9.01109 14.8448 8.92059 15.0387C8.34723 16.2673 7.55925 17.7989 6.8198 19.2273C6.45931 19.9237 6.13266 20.5475 5.89234 21.0044L7.93256 20.4739C8.11229 20.4271 8.2999 20.5144 8.37985 20.6821L9.31295 22.6382C9.46831 22.3055 9.66756 21.8786 9.89357 21.3942C10.4341 20.2356 11.1277 18.7477 11.7398 17.4305C11.83 17.2364 12.0605 17.1522 12.2546 17.2423C12.4486 17.3325 12.5329 17.563 12.4427 17.7571C11.8303 19.0749 11.1365 20.5632 10.5959 21.7219C10.3256 22.3013 10.0936 22.7983 9.92909 23.1505L9.668 23.7095C9.668 23.7095 9.66772 23.7101 9.31664 23.546L9.66772 23.7101C9.60425 23.8459 9.46811 23.9329 9.31818 23.9335C9.16825 23.9341 9.03143 23.8482 8.96688 23.7128L7.81805 21.3044L5.23676 21.9757C5.08796 22.0144 4.93036 21.9615 4.83508 21.8408C4.73981 21.7201 4.72488 21.5546 4.79705 21.4188L5.13923 21.6007C4.79705 21.4188 4.79705 21.4188 4.79705 21.4188L4.90154 21.2216C4.96894 21.0943 5.06653 20.9095 5.18722 20.6801C5.42861 20.2213 5.7623 19.5842 6.13153 18.871C6.87092 17.4428 7.65232 15.9237 8.21827 14.711C8.30877 14.517 8.53936 14.4332 8.7333 14.5237Z" />
<path fill-rule="evenodd" clip-rule="evenodd" d="M12.3333 0.633926L13.7746 1.50657L15.4402 1.25192L16.4378 2.60971L18.0741 3.01183L18.4762 4.64805L19.834 5.64572L19.5793 7.31128L20.452 8.75261L19.5793 10.1939L19.834 11.8595L18.4762 12.8572L18.0741 14.4934L16.4378 14.8955L15.4402 16.2533L13.7746 15.9986L12.3333 16.8713L10.892 15.9986L9.2264 16.2533L8.22873 14.8955L6.59251 14.4934L6.19038 12.8572L4.8326 11.8595L5.08724 10.1939L4.2146 8.75261L5.08724 7.31128L4.8326 5.64572L6.19038 4.64805L6.59251 3.01183L8.22873 2.60971L9.2264 1.25192L10.892 1.50657L12.3333 0.633926ZM12.3333 1.53795L11.0524 2.31342L9.57235 2.08714L8.68578 3.29373L7.23175 3.65108L6.8744 5.1051L5.66781 5.99168L5.8941 7.47177L5.11863 8.75261L5.8941 10.0334L5.66781 11.5135L6.8744 12.4001L7.23175 13.8541L8.68577 14.2115L9.57235 15.4181L11.0524 15.1918L12.3333 15.9673L13.6141 15.1918L15.0942 15.4181L15.9808 14.2115L17.4348 13.8541L17.7922 12.4001L18.9988 11.5135L18.7725 10.0334L19.5479 8.75261L18.7725 7.47177L18.9988 5.99168L17.7922 5.1051L17.4348 3.65108L15.9808 3.29373L15.0942 2.08714L13.6141 2.31342L12.3333 1.53795Z" />
<path d="M16.04 8.85574C16.1344 6.78479 14.5321 5.02939 12.4612 4.93494C10.3903 4.84049 8.63485 6.44276 8.5404 8.51371C8.44595 10.5847 10.0482 12.3401 12.1192 12.4345C14.1901 12.529 15.9455 10.9267 16.04 8.85574Z" />
</svg>
