<svg width="16" height="17" viewBox="0 0 16 17" xmlns="http://www.w3.org/2000/svg">
<path d="M0.509766 14.6113C0.177734 14.9434 0.167969 15.5098 0.509766 15.8418C0.851562 16.1738 1.41797 16.1738 1.75 15.8418L8 9.5918L14.25 15.8418C14.582 16.1738 15.1582 16.1836 15.4902 15.8418C15.8223 15.5 15.8223 14.9434 15.4902 14.6113L9.24023 8.35156L15.4902 2.10156C15.8223 1.76953 15.832 1.20312 15.4902 0.871094C15.1484 0.529297 14.582 0.529297 14.25 0.871094L8 7.12109L1.75 0.871094C1.41797 0.529297 0.841797 0.519531 0.509766 0.871094C0.177734 1.21289 0.177734 1.76953 0.509766 2.10156L6.75977 8.35156L0.509766 14.6113Z" />
</svg>
