<!-- Generated by IcoMoon.io -->
<svg version="1.1" xmlns="http://www.w3.org/2000/svg" fill="currentColor" width="37" height="32" viewBox="0 0 37 32">
<title>cloud</title>
<path d="M22.706 21.377v2.251h6.529c4.292 0 6.864-2.586 6.864-5.97 0-2.824-1.692-5.145-4.418-6.249 0.028-6.235-4.46-10.737-10.178-10.737-3.789 0-6.487 2.027-8.165 4.474-3.174-0.853-7.186 1.608-7.256 5.536-3.16 0.489-5.131 3.076-5.131 6.375 0 3.635 2.726 6.571 7.312 6.571h6.207v-2.251h-6.221c-3.313 0-5.047-1.915-5.047-4.32 0-2.67 1.692-4.655 4.655-4.655 0.196 0 0.266-0.112 0.266-0.294 0-4.292 3.090-5.48 5.97-4.641 0.168 0.056 0.266 0.028 0.35-0.126 1.356-2.419 3.439-4.418 7.060-4.418 4.585 0 7.759 3.635 7.997 7.801 0.042 0.629 0 1.384-0.056 2.041-0.014 0.182 0.056 0.294 0.224 0.322 2.545 0.559 4.18 2.153 4.18 4.572 0 2.153-1.566 3.719-4.628 3.719h-6.515zM18.596 31.932c0.28 0 0.503-0.112 0.797-0.377l4.725-4.418c0.224-0.196 0.335-0.433 0.335-0.741 0-0.559-0.447-0.979-1.020-0.979-0.266 0-0.545 0.126-0.755 0.335l-2.125 2.125-0.937 0.979 0.084-2.083v-11.995c0-0.587-0.503-1.090-1.105-1.090s-1.118 0.503-1.118 1.090v11.995l0.084 2.097-0.937-0.993-2.125-2.125c-0.21-0.21-0.503-0.335-0.769-0.335-0.587 0-1.007 0.419-1.007 0.979 0 0.308 0.098 0.545 0.336 0.741l4.725 4.418c0.294 0.266 0.517 0.377 0.811 0.377z"></path>
</svg>
