<svg width="150" height="151" viewBox="0 0 150 151" fill="none" xmlns="http://www.w3.org/2000/svg">
<path d="M75.5612 62.5904C79.9694 62.5904 84.1336 61.5495 87.8195 59.7103C102.869 61.1789 111.243 65.4956 115.876 71.2801C120.532 77.0922 121.5 84.4914 121.5 92.314V107.684C108.413 116.269 91.5046 120.599 74.6817 120.508C57.8543 120.417 41.1597 115.904 28.5 106.857V92.314C28.5 84.5334 29.8543 77.148 34.849 71.3367C39.826 65.5459 48.4982 61.226 63.336 59.7331C67.0122 61.5586 71.1536 62.5904 75.5612 62.5904ZM50.5583 31.548C50.5583 18.2757 61.4953 7.5 75 7.5C88.5092 7.5 99.4417 18.2756 99.4417 31.548C99.4417 44.8202 88.5049 55.5915 75 55.5915C61.4951 55.5915 50.5583 44.8202 50.5583 31.548Z" fill="#000" stroke="#000"/>
<circle cx="102.512" cy="114.756" r="26.5122" fill="#fff" stroke="#000" stroke-width="2"/>
<path d="M118.56 107.776L112.599 102.146L98.5201 116.127L92.0839 109.736L86.4629 116.127L98.3944 127.366H98.6709L118.56 107.776Z" stroke="#000" stroke-width="2"/>
</svg>
