<!-- Generated by IcoMoon.io -->
<svg version="1.1" xmlns="http://www.w3.org/2000/svg" fill="currentColor" width="38" height="32" viewBox="0 0 38 32">
<title>control-center</title>
<path d="M23.357 14.893h10.704c2.101 0 3.16-1.059 3.16-3.243v-7.395c0-2.184-1.059-3.226-3.16-3.226h-10.704c-2.101 0-3.16 1.042-3.16 3.226v7.395c0 2.184 1.059 3.243 3.16 3.243zM3.586 14.893h10.704c2.101 0 3.16-1.059 3.16-3.243v-7.395c0-2.184-1.059-3.226-3.16-3.226h-10.704c-2.101 0-3.16 1.042-3.16 3.226v7.395c0 2.184 1.059 3.243 3.16 3.243zM3.586 31.487h10.704c2.101 0 3.16-1.042 3.16-3.226v-7.412c0-2.167-1.059-3.226-3.16-3.226h-10.704c-2.101 0-3.16 1.059-3.16 3.226v7.412c0 2.184 1.059 3.226 3.16 3.226zM23.357 31.487h10.704c2.101 0 3.16-1.042 3.16-3.226v-7.412c0-2.167-1.059-3.226-3.16-3.226h-10.704c-2.101 0-3.16 1.059-3.16 3.226v7.412c0 2.184 1.059 3.226 3.16 3.226z"></path>
</svg>
