<svg width="91" height="92" viewBox="0 0 91 92" xmlns="http://www.w3.org/2000/svg" >
<rect y="0.392578" width="91" height="91" rx="45.5" fill="#767680" fill-opacity="0.2"/>
<path d="M45.0508 57.8848C51.5898 57.8848 57.0039 52.4707 57.0039 45.9316C57.0039 39.4043 51.5781 33.9785 45.0391 33.9785C38.5117 33.9785 33.0977 39.4043 33.0977 45.9316C33.0977 52.4707 38.5234 57.8848 45.0508 57.8848ZM45.0273 51.7676C44.3594 51.7676 44.0078 51.2871 44.0078 50.6074V46.9629H40.1641C39.4727 46.9629 38.9922 46.5996 38.9922 45.9551C38.9922 45.2871 39.4492 44.9121 40.1641 44.9121H44.0078V41.0332C44.0078 40.3535 44.3594 39.873 45.0273 39.873C45.6836 39.873 46.0703 40.3301 46.0703 41.0332V44.9121H49.9258C50.6406 44.9121 51.0859 45.2871 51.0859 45.9551C51.0859 46.5996 50.6172 46.9629 49.9258 46.9629H46.0703V50.6074C46.0703 51.3105 45.6836 51.7676 45.0273 51.7676Z" fill-opacity="0.4"/>
</svg>
