<svg width="16" height="18" viewBox="0 0 16 18" xmlns="http://www.w3.org/2000/svg" fill="none">
  <path d="m13.8873,16.5269l0.5727,-12.0694l0.9961,0c0.3403,0 0.6143,-0.2905 0.6143,-0.6308c0,-0.3404 -0.274,-0.6226 -0.6143,-0.6226l-3.7935,0l0,-1.2451c0,-1.1953 -0.8051,-1.959 -2.0835,-1.959l-3.1044,0c-1.2784,0 -2.0752,0.7637 -2.0752,1.959l0,1.2451l-3.7852,0c-0.332,0 -0.6143,0.2905 -0.6143,0.6226c0,0.3403 0.2823,0.6308 0.6143,0.6308l1.0044,0l0.5727,12.0777c0.0582,1.187 0.8384,1.9506 2.042,1.9506l7.6119,0c1.187,0 1.9838,-0.7719 2.042,-1.9589zm-8.1597,-14.4849c0,-0.4732 0.3403,-0.8052 0.8467,-0.8052l2.9135,0c0.5064,0 0.855,0.332 0.855,0.8052l0,1.1621l-4.6152,0l0,-1.1621zm-1.3779,15.1904c-0.4732,0 -0.8301,-0.3569 -0.855,-0.8467l-0.5811,-11.9282l10.2183,0l-0.5479,11.9282c-0.0249,0.4981 -0.3735,0.8467 -0.8716,0.8467l-7.3627,0zm6.1508,-1.4526c0.274,0 0.4732,-0.2241 0.4815,-0.5396l0.249,-8.7075c0.0083,-0.3071 -0.1992,-0.5395 -0.4814,-0.5395c-0.2574,0 -0.4732,0.2407 -0.4815,0.5395l-0.249,8.6992c-0.0083,0.3072 0.1992,0.5479 0.4814,0.5479zm-4.9223,0c0.2822,0 0.4897,-0.2407 0.4814,-0.5479l-0.2573,-8.6992c-0.0083,-0.2988 -0.2241,-0.5395 -0.4815,-0.5395c-0.2822,0 -0.4897,0.2324 -0.4814,0.5395l0.249,8.7075c0.0083,0.3155 0.2075,0.5396 0.4898,0.5396zm2.457,0c0.2739,0 0.5063,-0.2407 0.5063,-0.5396l0,-8.7075c0,-0.2988 -0.2324,-0.5395 -0.5063,-0.5395c-0.2656,0 -0.498,0.2407 -0.498,0.5395l0,8.7075c0,0.2989 0.2324,0.5396 0.498,0.5396z"/>
</svg>