<svg width="17" height="18" viewBox="0 0 17 18" fill="#697079" xmlns="http://www.w3.org/2000/svg">
    <path d="M15.6973 6.17627C16.1372 6.17627 16.3696 5.92725 16.3696 5.49561V3.46191C16.3696 1.75195 15.498 0.896973 13.7632 0.896973H11.7295C11.2979 0.896973 11.0571 1.12939 11.0571 1.56104C11.0571 1.99268 11.2979 2.2334 11.7295 2.2334H13.7383C14.5601 2.2334 15.0332 2.67334 15.0332 3.53662V5.49561C15.0332 5.92725 15.2739 6.17627 15.6973 6.17627ZM0.780762 6.17627C1.2207 6.17627 1.45312 5.92725 1.45312 5.49561V3.53662C1.45312 2.67334 1.90967 2.2334 2.73975 2.2334H4.74854C5.18848 2.2334 5.4292 1.99268 5.4292 1.56104C5.4292 1.12939 5.18848 0.896973 4.74854 0.896973H2.72314C0.988281 0.896973 0.116699 1.75195 0.116699 3.46191V5.49561C0.116699 5.92725 0.357422 6.17627 0.780762 6.17627ZM7.5791 10.418H7.64551C8.48389 10.418 8.94043 9.96143 8.94043 9.12305V6.5083C8.94043 6.18457 8.72461 5.97705 8.40918 5.97705C8.07715 5.97705 7.86133 6.18457 7.86133 6.5083V9.19775C7.86133 9.28076 7.81152 9.32227 7.73682 9.32227H7.44629C7.14746 9.32227 6.91504 9.55469 6.91504 9.85352C6.91504 10.2104 7.15576 10.418 7.5791 10.418ZM5.08057 8.45898C5.4707 8.45898 5.75293 8.18506 5.75293 7.78662V6.65771C5.75293 6.25928 5.4707 5.98535 5.08057 5.98535C4.69043 5.98535 4.4165 6.25928 4.4165 6.65771V7.78662C4.4165 8.18506 4.69043 8.45898 5.08057 8.45898ZM11.3809 8.45898C11.7627 8.45898 12.0366 8.18506 12.0366 7.78662V6.65771C12.0366 6.25928 11.7627 5.98535 11.3809 5.98535C10.9824 5.98535 10.7085 6.25928 10.7085 6.65771V7.78662C10.7085 8.18506 10.9824 8.45898 11.3809 8.45898ZM8.19336 13.207C9.19775 13.207 10.2104 12.7754 10.9326 12.0532C11.0322 11.9619 11.082 11.8208 11.082 11.6548C11.082 11.3394 10.8496 11.1152 10.5425 11.1152C10.3848 11.1152 10.2686 11.1733 10.1108 11.3394C9.6543 11.8125 8.93213 12.1362 8.19336 12.1362C7.49609 12.1362 6.76562 11.8291 6.28418 11.3394C6.15137 11.2148 6.04346 11.1152 5.84424 11.1152C5.53711 11.1152 5.30469 11.3394 5.30469 11.6548C5.30469 11.7959 5.35449 11.9287 5.4624 12.0449C6.13477 12.8086 7.18896 13.207 8.19336 13.207ZM2.72314 17.1416H4.74854C5.18848 17.1416 5.4292 16.9009 5.4292 16.4775C5.4292 16.0459 5.18848 15.8052 4.74854 15.8052H2.73975C1.90967 15.8052 1.45312 15.3652 1.45312 14.502V12.543C1.45312 12.103 1.2124 11.8623 0.780762 11.8623C0.349121 11.8623 0.116699 12.103 0.116699 12.543V14.5684C0.116699 16.2866 0.988281 17.1416 2.72314 17.1416ZM11.7295 17.1416H13.7632C15.498 17.1416 16.3696 16.2783 16.3696 14.5684V12.543C16.3696 12.103 16.1289 11.8623 15.6973 11.8623C15.2656 11.8623 15.0332 12.103 15.0332 12.543V14.502C15.0332 15.3652 14.5601 15.8052 13.7383 15.8052H11.7295C11.2979 15.8052 11.0571 16.0459 11.0571 16.4775C11.0571 16.9009 11.2979 17.1416 11.7295 17.1416Z"/>
</svg>
