<?xml version="1.0" encoding="utf-8"?>
<svg viewBox="0 0 3000 3000" width="3000" height="3000" style="shape-rendering:geometricPrecision; text-rendering:geometricPrecision; image-rendering:optimizeQuality; fill-rule:evenodd; clip-rule:evenodd" xmlns="http://www.w3.org/2000/svg">
  <g transform="matrix(1, 0, 0, 1, -1.1368683772161603e-13, 0)">
    <path style="opacity:1" fill="#e8e8df" d="M 413.5,-0.5 C 939.167,-0.5 1464.83,-0.5 1990.5,-0.5C 1996.87,1.18429 2002.87,3.85095 2008.5,7.5C 2008.5,219.167 2008.5,430.833 2008.5,642.5C 2220.17,642.5 2431.83,642.5 2643.5,642.5C 2647.96,651.926 2650.46,661.926 2651,672.5C 2651.5,948.166 2651.67,1223.83 2651.5,1499.5C 2651.17,1499.5 2650.83,1499.5 2650.5,1499.5C 2472.82,1329.66 2294.66,1160.32 2116,991.5C 2112.71,993.782 2109.71,996.449 2107,999.5C 1922.7,1202.13 1738.04,1404.47 1553,1606.5C 1455.32,1508.65 1357.49,1410.99 1259.5,1313.5C 955.828,1571.18 652.495,1829.18 349.5,2087.5C 348.833,2087.83 348.167,2088.17 347.5,2088.5C 347.333,1420.83 347.5,753.167 348,85.5C 349.544,58.9304 359.377,36.0971 377.5,17C 388.126,8.18601 400.126,2.35268 413.5,-0.5 Z"/>
  </g>
  <g transform="matrix(1, 0, 0, 1, -1.1368683772161603e-13, 0)">
    <path style="opacity:1" fill="#d9d7ca" d="M 2008.5,7.5 C 2220.5,218.833 2432.17,430.5 2643.5,642.5C 2431.83,642.5 2220.17,642.5 2008.5,642.5C 2008.5,430.833 2008.5,219.167 2008.5,7.5 Z"/>
  </g>
  <g transform="matrix(1, 0, 0, 1, -1.1368683772161603e-13, 0)">
    <path style="opacity: 1; fill: rgb(255, 214, 20);" d="M 996.5,527.5 C 1081.06,524.825 1150.56,555.491 1205,619.5C 1259.96,692.247 1272.62,771.914 1243,858.5C 1212.78,934.387 1158.61,984.221 1080.5,1008C 986.972,1031.16 905.806,1009.33 837,942.5C 771.963,869.663 753.63,786.33 782,692.5C 811.304,615.862 864.804,564.362 942.5,538C 960.389,533.187 978.389,529.687 996.5,527.5 Z"/>
  </g>
  <g transform="matrix(1, 0, 0, 1, -1.1368683772161603e-13, 0)">
    <path style="opacity: 1; fill: rgb(238, 215, 108);" d="M 2650.5,1499.5 C 2650.5,1695.83 2650.5,1892.17 2650.5,2088.5C 1883.33,2088.83 1116.33,2088.5 349.5,2087.5C 652.495,1829.18 955.828,1571.18 1259.5,1313.5C 1357.49,1410.99 1455.32,1508.65 1553,1606.5C 1738.04,1404.47 1922.7,1202.13 2107,999.5C 2109.71,996.449 2112.71,993.782 2116,991.5C 2294.66,1160.32 2472.82,1329.66 2650.5,1499.5 Z"/>
  </g>
  <g transform="matrix(1, 0, 0, 1, -1.1368683772161603e-13, 0)">
    <path style="opacity:1" fill="#86b35e" d="M 2650.5,1499.5 C 2650.83,1499.5 2651.17,1499.5 2651.5,1499.5C 2651.5,1976.5 2651.5,2453.5 2651.5,2930.5C 2651.17,2930.5 2650.83,2930.5 2650.5,2930.5C 2650.5,2650.17 2650.5,2369.83 2650.5,2089.5C 1883.17,2089.5 1115.83,2089.5 348.5,2089.5C 348.5,2369.83 348.5,2650.17 348.5,2930.5C 348.167,2930.5 347.833,2930.5 347.5,2930.5C 347.5,2649.83 347.5,2369.17 347.5,2088.5C 348.167,2088.17 348.833,2087.83 349.5,2087.5C 1116.33,2088.5 1883.33,2088.83 2650.5,2088.5C 2650.5,1892.17 2650.5,1695.83 2650.5,1499.5 Z"/>
  </g>
  <g transform="matrix(1, 0, 0, 1, -1.1368683772161603e-13, 0)">
    <path style="opacity: 1; fill-rule: evenodd; paint-order: fill; fill: rgb(255, 215, 19);" d="M 2650.5,2930.5 C 2646.33,2958.66 2631.66,2979.33 2606.5,2992.5C 2599.81,2995.84 2592.81,2998.17 2585.5,2999.5C 1861.5,2999.5 1137.5,2999.5 413.5,2999.5C 411.5,2998.83 409.5,2998.17 407.5,2997.5C 405.485,2996.08 403.152,2995.41 400.5,2995.5C 400.167,2995.5 399.833,2995.5 399.5,2995.5C 397.824,2993.17 395.491,2992.17 392.5,2992.5C 367.349,2979.34 352.683,2958.67 348.5,2930.5C 348.5,2650.17 348.5,2369.83 348.5,2089.5C 1115.83,2089.5 1883.17,2089.5 2650.5,2089.5C 2650.5,2369.83 2650.5,2650.17 2650.5,2930.5 Z"/>
  </g>
  <g transform="matrix(1, 0, 0, 1, -1.1368683772161603e-13, 0)">
    <path style="opacity:0.908" fill="#e4e6da" d="M 347.5,2930.5 C 347.833,2930.5 348.167,2930.5 348.5,2930.5C 352.683,2958.67 367.349,2979.34 392.5,2992.5C 372.098,2984.93 357.265,2971.27 348,2951.5C 347.5,2944.51 347.334,2937.51 347.5,2930.5 Z"/>
  </g>
  <g transform="matrix(1, 0, 0, 1, -1.1368683772161603e-13, 0)">
    <path style="opacity:0.908" fill="#e4e6d9" d="M 2650.5,2930.5 C 2650.83,2930.5 2651.17,2930.5 2651.5,2930.5C 2653.81,2943.84 2650.98,2955.84 2643,2966.5C 2633.1,2978.52 2620.94,2987.18 2606.5,2992.5C 2631.66,2979.33 2646.33,2958.66 2650.5,2930.5 Z"/>
  </g>
  <g transform="matrix(1, 0, 0, 1, -1.1368683772161603e-13, 0)">
    <path style="opacity:1" fill="#a9c48d" d="M 392.5,2992.5 C 395.491,2992.17 397.824,2993.17 399.5,2995.5C 396.843,2995.07 394.509,2994.07 392.5,2992.5 Z"/>
  </g>
  <g transform="matrix(1, 0, 0, 1, -1.1368683772161603e-13, 0)">
    <path style="opacity:0.992" fill="#9ebc7f" d="M 400.5,2995.5 C 403.152,2995.41 405.485,2996.08 407.5,2997.5C 404.848,2997.59 402.515,2996.92 400.5,2995.5 Z"/>
  </g>
</svg>