<!-- Generated by IcoMoon.io -->
<svg version="1.1" xmlns="http://www.w3.org/2000/svg" fill="currentColor" width="32" height="32" viewBox="0 0 32 32">
<title>identity</title>
<path d="M16 7.283c-2.266 0-4.103 1.837-4.103 4.103s1.837 4.103 4.103 4.103c2.266 0 4.103-1.837 4.103-4.103s-1.837-4.103-4.103-4.103zM11.008 11.386c0-2.757 2.235-4.992 4.992-4.992s4.992 2.235 4.992 4.992c0 2.757-2.235 4.992-4.992 4.992s-4.992-2.235-4.992-4.992z"></path>
<path d="M16 17.97c-3.972 0-7.191 3.22-7.191 7.191h-0.889c0-4.463 3.618-8.080 8.080-8.080s8.080 3.618 8.080 8.080h-0.889c0-3.972-3.22-7.191-7.191-7.191z"></path>
</svg>
