<svg xmlns="http://www.w3.org/2000/svg" width="16" height="16" viewBox="0 0 16 16" fill="none">
  <path fill-rule="evenodd" clip-rule="evenodd" d="M8.00002 0C12.415 0 16 3.58501 16 8.00002C16 12.415 12.415 16 8.00002 16C3.58501 16 0 12.415 0 8.00002C0 3.58501 3.58501 0 8.00002 0ZM9.33105 12C9.88105 12 10.3271 11.554 10.3271 11.004C10.3271 10.454 9.88105 10.007 9.33105 10.007H8.99805V6.75703C8.99805 6.31403 8.75905 6.00003 8.31805 6.00003C8.31505 6.00003 6.68304 6.00003 6.68304 6.00003C6.12904 6.00003 5.67804 6.45003 5.67804 7.00503C5.67804 7.56003 6.12904 8.01003 6.68304 8.01003H6.99504V10.007H6.65404C6.10404 10.007 5.65704 10.454 5.65704 11.004C5.65704 11.554 6.10404 12 6.65404 12H9.33105ZM8.00002 2.65799C8.74103 2.65799 9.34203 3.25899 9.34203 3.99999C9.34203 4.74099 8.74103 5.342 8.00002 5.342C7.25902 5.342 6.65802 4.74099 6.65802 3.99999C6.65802 3.25899 7.25902 2.65799 8.00002 2.65799Z" fill="#007AFF"/>
</svg>