<svg width="8" height="8" viewBox="0 0 8 8" fill="black" xmlns="http://www.w3.org/2000/svg">
    <path d="M4.12793 7.44312C6.00439 7.44312 7.55615 5.89136 7.55615 4.01489C7.55615 2.13843 6.00439 0.58667 4.12451 0.58667C2.24805 0.58667 0.699707 2.13843 0.699707 4.01489C0.699707 5.89136 2.25146 7.44312 4.12793 7.44312ZM4.12793 7.0022C2.47363 7.0022 1.14404 5.66919 1.14404 4.01489C1.14404 2.3606 2.47363 1.03101 4.12451 1.03101C5.77881 1.03101 7.11182 2.3606 7.11523 4.01489C7.11523 5.66919 5.78223 7.0022 4.12793 7.0022ZM4.10742 2.7229C4.31934 2.7229 4.4834 2.55884 4.4834 2.35034C4.4834 2.14185 4.31934 1.97437 4.10742 1.97437C3.89893 1.97437 3.73145 2.14185 3.73145 2.35034C3.73145 2.55884 3.89893 2.7229 4.10742 2.7229ZM3.51611 5.87769H4.91748C5.02686 5.87769 5.1123 5.79565 5.1123 5.6897C5.1123 5.58374 5.02686 5.49829 4.91748 5.49829H4.42529V3.58423C4.42529 3.44409 4.35352 3.34839 4.2168 3.34839H3.56055C3.45117 3.34839 3.36572 3.43384 3.36572 3.53638C3.36572 3.64575 3.45117 3.72778 3.56055 3.72778H4.0083V5.49829H3.51611C3.40674 5.49829 3.32129 5.58374 3.32129 5.6897C3.32129 5.79565 3.40674 5.87769 3.51611 5.87769Z" />
</svg>
