<!DOCTYPE svg PUBLIC "-//W3C//DTD SVG 1.1//EN" "http://www.w3.org/Graphics/SVG/1.1/DTD/svg11.dtd" []>
<svg xmlns="http://www.w3.org/2000/svg" version="1.1" width="39" height="48"
    style="shape-rendering:geometricPrecision; text-rendering:geometricPrecision; image-rendering:optimizeQuality; fill-rule:evenodd; clip-rule:evenodd"
    xmlns:xlink="http://www.w3.org/1999/xlink" viewBox="0 0 3000 3000">
    <g>
        <path style="opacity:1" fill="#e8e8df"
            d="M 413.5,-0.5 C 939.167,-0.5 1464.83,-0.5 1990.5,-0.5C 1996.87,1.18429 2002.87,3.85095 2008.5,7.5C 2008.5,219.167 2008.5,430.833 2008.5,642.5C 2220.17,642.5 2431.83,642.5 2643.5,642.5C 2647.96,651.926 2650.46,661.926 2651,672.5C 2651.5,948.166 2651.67,1223.83 2651.5,1499.5C 2472.85,1329.85 2294.19,1160.19 2115.5,990.5C 1927.82,1195.68 1740.32,1401.02 1553,1606.5C 1455.5,1509 1358,1411.5 1260.5,1314C 1259.5,1313.33 1258.5,1313.33 1257.5,1314C 954.936,1572.07 652.269,1829.91 349.5,2087.5C 348.833,2087.83 348.167,2088.17 347.5,2088.5C 347.333,1420.83 347.5,753.167 348,85.5C 349.544,58.9304 359.377,36.0971 377.5,17C 388.126,8.18601 400.126,2.35268 413.5,-0.5 Z" />
    </g>
    <g>
        <path style="opacity:1" fill="#d9d7ca"
            d="M 2008.5,7.5 C 2220.5,218.833 2432.17,430.5 2643.5,642.5C 2431.83,642.5 2220.17,642.5 2008.5,642.5C 2008.5,430.833 2008.5,219.167 2008.5,7.5 Z" />
    </g>
    <g>
        <path style="opacity:1" fill="#f2d55b"
            d="M 996.5,527.5 C 1081.06,524.825 1150.56,555.491 1205,619.5C 1259.96,692.247 1272.62,771.914 1243,858.5C 1215.35,928.152 1166.51,976.319 1096.5,1003C 1001.6,1033.14 917.262,1015.14 843.5,949C 781.59,885.235 758.423,809.401 774,721.5C 793.337,641.972 839.837,584.472 913.5,549C 940.108,537.266 967.774,530.099 996.5,527.5 Z" />
    </g>
    <g>
        <path style="opacity:1" fill="#26b99a"
            d="M 2651.5,1499.5 C 2651.5,1695.83 2651.5,1892.17 2651.5,2088.5C 1884,2088.83 1116.67,2088.5 349.5,2087.5C 652.269,1829.91 954.936,1572.07 1257.5,1314C 1258.5,1313.33 1259.5,1313.33 1260.5,1314C 1358,1411.5 1455.5,1509 1553,1606.5C 1740.32,1401.02 1927.82,1195.68 2115.5,990.5C 2294.19,1160.19 2472.85,1329.85 2651.5,1499.5 Z" />
    </g>
    <g>
        <path style="opacity:1" fill="#3eae97"
            d="M 349.5,2087.5 C 1116.67,2088.5 1884,2088.83 2651.5,2088.5C 2651.5,2368.17 2651.5,2647.83 2651.5,2927.5C 2651.17,2927.5 2650.83,2927.5 2650.5,2927.5C 2650.5,2648.17 2650.5,2368.83 2650.5,2089.5C 1883.17,2089.5 1115.83,2089.5 348.5,2089.5C 348.5,2369.83 348.5,2650.17 348.5,2930.5C 348.167,2930.5 347.833,2930.5 347.5,2930.5C 347.5,2649.83 347.5,2369.17 347.5,2088.5C 348.167,2088.17 348.833,2087.83 349.5,2087.5 Z" />
    </g>
    <g>
        <path style="opacity:1" fill="#14a085"
            d="M 2650.5,2927.5 C 2647.52,2957.14 2632.85,2978.8 2606.5,2992.5C 2599.81,2995.84 2592.81,2998.17 2585.5,2999.5C 1861.5,2999.5 1137.5,2999.5 413.5,2999.5C 406.187,2998.17 399.187,2995.84 392.5,2992.5C 367.354,2979.34 352.687,2958.67 348.5,2930.5C 348.5,2650.17 348.5,2369.83 348.5,2089.5C 1115.83,2089.5 1883.17,2089.5 2650.5,2089.5C 2650.5,2368.83 2650.5,2648.17 2650.5,2927.5 Z" />
    </g>
    <g>
        <path style="opacity:1" fill="#fefefe"
            d="M 1058.5,2284.5 C 1088.17,2284.5 1117.83,2284.5 1147.5,2284.5C 1147.67,2427.83 1147.5,2571.17 1147,2714.5C 1141.65,2779.2 1107.15,2818.36 1043.5,2832C 992.436,2842.86 942.103,2840.19 892.5,2824C 869.99,2816.94 848.323,2807.94 827.5,2797C 823.949,2794.73 820.616,2792.23 817.5,2789.5C 829.583,2769.66 841.916,2750 854.5,2730.5C 870.766,2740.09 888.1,2747.26 906.5,2752C 927.178,2758.63 948.344,2762.46 970,2763.5C 995.014,2764.87 1017.85,2758.71 1038.5,2745C 1050.8,2732.81 1057.3,2717.97 1058,2700.5C 1058.5,2561.83 1058.67,2423.17 1058.5,2284.5 Z" />
    </g>
    <g>
        <path style="opacity:1" fill="#fefefe"
            d="M 1937.5,2616.5 C 1937.5,2596.83 1937.5,2577.17 1937.5,2557.5C 1996.83,2557.5 2056.17,2557.5 2115.5,2557.5C 2115.67,2627.17 2115.5,2696.83 2115,2766.5C 2096.42,2788.54 2073.92,2805.38 2047.5,2817C 1999.62,2836.79 1949.95,2843.12 1898.5,2836C 1819.38,2820.22 1765.22,2774.72 1736,2699.5C 1715.97,2643.5 1708.63,2585.83 1714,2526.5C 1716.94,2466.66 1735.94,2412.66 1771,2364.5C 1818.92,2308.14 1880.09,2282.31 1954.5,2287C 2006.08,2290.3 2050.41,2309.64 2087.5,2345C 2067.33,2363.17 2047.17,2381.33 2027,2399.5C 2007.92,2376.54 1983.42,2363.37 1953.5,2360C 1903.92,2355.05 1865.09,2372.88 1837,2413.5C 1817.77,2446.18 1806.77,2481.51 1804,2519.5C 1800.3,2562.85 1802.63,2605.85 1811,2648.5C 1839.08,2761.96 1908.24,2798.79 2018.5,2759C 2021.96,2756.54 2025.13,2753.7 2028,2750.5C 2028.5,2705.83 2028.67,2661.17 2028.5,2616.5C 1998.17,2616.5 1967.83,2616.5 1937.5,2616.5 Z" />
    </g>
    <g>
        <path style="opacity:1" fill="#fefefe"
            d="M 1366.5,2640.5 C 1365.5,2705 1365.17,2769.66 1365.5,2834.5C 1336.5,2834.5 1307.5,2834.5 1278.5,2834.5C 1278.5,2654.83 1278.5,2475.17 1278.5,2295.5C 1335.17,2295.33 1391.83,2295.5 1448.5,2296C 1505.55,2299.78 1552.38,2323.28 1589,2366.5C 1615.27,2400.33 1625.94,2438.66 1621,2481.5C 1610.94,2565.22 1564.78,2616.39 1482.5,2635C 1468.63,2637.76 1454.63,2639.42 1440.5,2640C 1415.84,2640.5 1391.17,2640.67 1366.5,2640.5 Z" />
    </g>
    <g>
        <path style="opacity:1" fill="#15a085"
            d="M 1366.5,2361.5 C 1395.53,2361.08 1424.53,2361.58 1453.5,2363C 1509.79,2373.52 1537.45,2407.52 1536.5,2465C 1537.64,2492.04 1531.47,2517.2 1518,2540.5C 1503.32,2560.6 1483.48,2572.1 1458.5,2575C 1427.84,2575.5 1397.17,2575.67 1366.5,2575.5C 1366.5,2504.17 1366.5,2432.83 1366.5,2361.5 Z" />
    </g>
    <g>
        <path style="opacity:1" fill="#b7e2d9"
            d="M 2115.5,2557.5 C 2056.17,2557.5 1996.83,2557.5 1937.5,2557.5C 1937.5,2577.17 1937.5,2596.83 1937.5,2616.5C 1936.5,2596.67 1936.17,2576.67 1936.5,2556.5C 1996.34,2556.17 2056,2556.5 2115.5,2557.5 Z" />
    </g>
    <g>
        <path style="opacity:1" fill="#b7e1d9"
            d="M 1366.5,2640.5 C 1366.5,2705.5 1366.5,2770.5 1366.5,2835.5C 1337,2835.83 1307.66,2835.5 1278.5,2834.5C 1307.5,2834.5 1336.5,2834.5 1365.5,2834.5C 1365.17,2769.66 1365.5,2705 1366.5,2640.5 Z" />
    </g>
    <g>
        <path style="opacity:0.908" fill="#e2e6dd"
            d="M 347.5,2930.5 C 347.833,2930.5 348.167,2930.5 348.5,2930.5C 352.687,2958.67 367.354,2979.34 392.5,2992.5C 372.098,2984.93 357.265,2971.27 348,2951.5C 347.5,2944.51 347.334,2937.51 347.5,2930.5 Z" />
    </g>
    <g>
        <path style="opacity:0.908" fill="#e2e6dd"
            d="M 2650.5,2927.5 C 2650.83,2927.5 2651.17,2927.5 2651.5,2927.5C 2651.67,2935.51 2651.5,2943.51 2651,2951.5C 2641.74,2971.27 2626.9,2984.93 2606.5,2992.5C 2632.85,2978.8 2647.52,2957.14 2650.5,2927.5 Z" />
    </g>
</svg>