<svg width="32" height="32" viewBox="0 0 32 32" fill="none" xmlns="http://www.w3.org/2000/svg">
<path d="M13.8535 17.0737C14.3142 17.6902 14.902 18.2003 15.5771 18.5694C16.2521 18.9386 16.9985 19.1581 17.7657 19.2131C18.5329 19.2681 19.303 19.1573 20.0237 18.8882C20.7443 18.6191 21.3988 18.1981 21.9426 17.6536L25.161 14.4322C26.1381 13.4196 26.6788 12.0633 26.6666 10.6556C26.6544 9.24786 26.0902 7.90125 25.0957 6.9058C24.1011 5.91034 22.7558 5.34569 21.3493 5.33345C19.9429 5.32122 18.5879 5.86239 17.5762 6.84039L15.7309 8.67659" stroke-width="1.5" stroke-linecap="round" stroke-linejoin="round"/>
<path d="M18.1453 14.926C17.6846 14.3095 17.0968 13.7994 16.4218 13.4303C15.7468 13.0612 15.0003 12.8417 14.2331 12.7867C13.4659 12.7317 12.6958 12.8425 11.9752 13.1115C11.2545 13.3806 10.6001 13.8017 10.0563 14.3462L6.8378 17.5676C5.86068 18.5802 5.32001 19.9364 5.33223 21.3441C5.34446 22.7519 5.90859 24.0985 6.90314 25.094C7.89769 26.0894 9.24307 26.6541 10.6495 26.6663C12.056 26.6785 13.4109 26.1374 14.4226 25.1594L16.2571 23.3232" stroke-width="1.5" stroke-linecap="round" stroke-linejoin="round"/>
</svg>
