<svg width="44" height="44" viewBox="0 0 44 44" xmlns="http://www.w3.org/2000/svg">
<path fill-rule="evenodd" clip-rule="evenodd" d="M13 14.5038C13 14.105 13.1584 13.7225 13.4405 13.4405C13.7225 13.1584 14.105 13 14.5038 13H29.4945C29.6922 12.9997 29.888 13.0383 30.0707 13.1138C30.2533 13.1892 30.4194 13.3 30.5592 13.4396C30.699 13.5793 30.81 13.7452 30.8856 13.9278C30.9612 14.1104 31.0001 14.3062 31 14.5038V29.4945C31.0002 29.6922 30.9614 29.888 30.8859 30.0707C30.8104 30.2534 30.6996 30.4194 30.5598 30.5593C30.4201 30.6991 30.2541 30.81 30.0715 30.8856C29.8888 30.9612 29.6931 31.0001 29.4954 31H14.5038C14.3063 31 14.1106 30.9611 13.9281 30.8855C13.7456 30.8098 13.5798 30.699 13.4402 30.5593C13.3005 30.4195 13.1898 30.2536 13.1142 30.0711C13.0387 29.8886 12.9999 29.6929 13 29.4954V14.5038ZM20.1247 19.8629H22.5621V21.0869C22.9139 20.3833 23.8139 19.75 25.1664 19.75C27.7592 19.75 28.3736 21.1515 28.3736 23.7231V28.4865H25.7497V24.3089C25.7497 22.8444 25.3979 22.018 24.5045 22.018C23.2649 22.018 22.7495 22.909 22.7495 24.3089V28.4865H20.1247V19.8629ZM15.6247 28.3745H18.2495V19.75H15.6247V28.3736V28.3745ZM18.625 16.9371C18.6299 17.1618 18.59 17.3853 18.5074 17.5943C18.4248 17.8034 18.3013 17.9939 18.1441 18.1546C17.9869 18.3153 17.7992 18.4429 17.592 18.5301C17.3848 18.6173 17.1623 18.6622 16.9375 18.6622C16.7127 18.6622 16.4902 18.6173 16.283 18.5301C16.0758 18.4429 15.8881 18.3153 15.7309 18.1546C15.5737 17.9939 15.4502 17.8034 15.3676 17.5943C15.285 17.3853 15.2451 17.1618 15.25 16.9371C15.2597 16.496 15.4418 16.0762 15.7572 15.7677C16.0726 15.4591 16.4963 15.2863 16.9375 15.2863C17.3787 15.2863 17.8024 15.4591 18.1178 15.7677C18.4332 16.0762 18.6153 16.496 18.625 16.9371Z"/>
</svg>
