<svg width="32" height="32" viewBox="0 0 32 32" fill="none" xmlns="http://www.w3.org/2000/svg">
<rect width="32" height="32" rx="4" fill="#1B7FAA"/>
<path d="M11.5197 25.4121V13.4506H7.80749V25.4121H11.5197ZM9.64362 11.8504C10.8411 11.8504 11.7991 10.8502 11.7991 9.65006C11.7991 8.48991 10.8411 7.52979 9.64362 7.52979C8.48606 7.52979 7.52808 8.48991 7.52808 9.65006C7.52808 10.8502 8.48606 11.8504 9.64362 11.8504ZM25.3705 25.4121H25.4104V18.8513C25.4104 15.6509 24.6919 13.1705 20.9398 13.1705C19.1436 13.1705 17.9461 14.1707 17.4272 15.0908H17.3873V13.4506H13.8348V25.4121H17.547V19.4914C17.547 17.9312 17.8264 16.451 19.7424 16.451C21.6583 16.451 21.6982 18.2112 21.6982 19.6114V25.4121H25.3705Z" fill="white"/>
</svg>
