<svg width="24" height="25" viewBox="0 0 24 25" fill="none" xmlns="http://www.w3.org/2000/svg">
<g clip-path="url(#clip0_15574_43788)">
<path d="M9.85352 13.1482C10.3142 13.7647 10.902 14.2748 11.5771 14.6439C12.2521 15.013 12.9985 15.2325 13.7657 15.2875C14.5329 15.3425 15.303 15.2317 16.0237 14.9627C16.7443 14.6936 17.3988 14.2725 17.9426 13.728L21.161 10.5066C22.1381 9.49402 22.6788 8.1378 22.6666 6.73006C22.6544 5.32233 22.0902 3.97572 21.0957 2.98026C20.1011 1.9848 18.7558 1.42015 17.3493 1.40792C15.9429 1.39568 14.5879 1.93685 13.5762 2.91486L11.7309 4.75106" stroke="black" stroke-width="1.5" stroke-linecap="round" stroke-linejoin="round"/>
<path d="M14.1453 11.0005C13.6846 10.384 13.0968 9.87388 12.4218 9.50476C11.7468 9.13563 11.0003 8.91613 10.2331 8.86113C9.46589 8.80613 8.69583 8.91693 7.97516 9.18601C7.25448 9.45509 6.60005 9.87615 6.05625 10.4206L2.8378 13.642C1.86068 14.6547 1.32001 16.0109 1.33223 17.4186C1.34446 18.8263 1.90859 20.173 2.90314 21.1684C3.89769 22.1639 5.24307 22.7285 6.64952 22.7408C8.05597 22.753 9.41095 22.2118 10.4226 21.2338L12.2571 19.3976" stroke="black" stroke-width="1.5" stroke-linecap="round" stroke-linejoin="round"/>
</g>
<defs>
<clipPath id="clip0_15574_43788">
<rect width="24" height="24" fill="white" transform="translate(0 0.0744629)"/>
</clipPath>
</defs>
</svg>
