<svg width="4" height="17" viewBox="0 0 4 17" fill="currentColor" xmlns="http://www.w3.org/2000/svg">
<title>more</title>
<path fill-rule="evenodd" clip-rule="evenodd" d="M2 4.40909C3.1 4.40909 4 3.48863 4 2.36363C4 1.23863 3.1 0.318176 2 0.318176C0.9 0.318176 0 1.23863 0 2.36363C0 3.48863 0.9 4.40909 2 4.40909ZM2 6.45454C0.9 6.45454 0 7.37499 0 8.49999C0 9.62499 0.9 10.5454 2 10.5454C3.1 10.5454 4 9.62499 4 8.49999C4 7.37499 3.1 6.45454 2 6.45454ZM2 12.5909C0.9 12.5909 0 13.5114 0 14.6364C0 15.7614 0.9 16.6818 2 16.6818C3.1 16.6818 4 15.7614 4 14.6364C4 13.5114 3.1 12.5909 2 12.5909Z" />
</svg>

