<svg width="104" height="104" viewBox="0 0 104 104" fill="#FF9500" xmlns="http://www.w3.org/2000/svg">
    <path fill-rule="evenodd" clip-rule="evenodd" d="M4.95454 32.2531C4.95454 31.9769 5.1784 31.7531 5.45454 31.7531H44C44.2761 31.7531 44.5 31.9769 44.5 32.2531C44.5 32.5292 44.2761 32.7531 44 32.7531H5.95454V87.6621H60.8636V73.4492C60.8636 73.1731 61.0875 72.9492 61.3636 72.9492C61.6398 72.9492 61.8636 73.1731 61.8636 73.4492V88.1621C61.8636 88.4383 61.6398 88.6621 61.3636 88.6621H5.45454C5.1784 88.6621 4.95454 88.4383 4.95454 88.1621V32.2531Z"/>
    <path fill-rule="evenodd" clip-rule="evenodd" d="M0.5 27C0.5 26.7239 0.723858 26.5 1 26.5H10.5455C10.8216 26.5 11.0455 26.7239 11.0455 27C11.0455 27.2761 10.8216 27.5 10.5455 27.5H1.5V36.5455C1.5 36.8216 1.27614 37.0455 1 37.0455C0.723858 37.0455 0.5 36.8216 0.5 36.5455V27Z"/>
    <path fill-rule="evenodd" clip-rule="evenodd" d="M67.3182 92.2531C67.3182 92.5292 67.0943 92.7531 66.8182 92.7531L57.2727 92.7531C56.9966 92.7531 56.7727 92.5292 56.7727 92.2531C56.7727 91.9769 56.9966 91.7531 57.2727 91.7531L66.3182 91.7531L66.3182 82.7076C66.3182 82.4315 66.542 82.2076 66.8182 82.2076C67.0943 82.2076 67.3182 82.4315 67.3182 82.7076L67.3182 92.2531Z"/>
    <path fill-rule="evenodd" clip-rule="evenodd" d="M54.6043 13C52.6066 13 51 14.6052 51 16.5654V50.045C51 52.0052 52.6066 53.6104 54.6043 53.6104H59.2105C59.7628 53.6104 60.2105 54.0581 60.2105 54.6104V64.5421C60.2105 64.9948 60.7866 65.2555 61.1322 64.9018M61.1322 64.9018L71.8409 53.9125C72.0292 53.7193 72.2874 53.6104 72.5571 53.6104H97.5775C99.5752 53.6104 101.182 52.0052 101.182 50.045V18.0872C101.182 15.2862 98.8884 13 96.0428 13H54.6043M49 16.5654C49 13.4847 51.5181 11 54.6043 11H96.0428C99.977 11 103.182 14.1657 103.182 18.0872V50.045C103.182 53.1258 100.664 55.6104 97.5775 55.6104H72.9789L62.5645 66.2976C60.9916 67.9103 58.2105 66.8246 58.2105 64.5421V55.6104H54.6043C51.5181 55.6104 49 53.1258 49 50.045V16.5654Z"/>
    <path fill-rule="evenodd" clip-rule="evenodd" d="M76.0776 20.6126C76.0736 20.6148 76.058 20.6243 76.0386 20.6562L61.7761 44.1939C61.7342 44.2629 61.7323 44.3461 61.7688 44.4187C61.7861 44.4531 61.8053 44.4699 61.8137 44.4755C61.8181 44.4785 61.8197 44.4796 61.8291 44.4796H71.4866V46.4796H61.8291C60.0641 46.4796 59.2567 44.4893 60.0667 43.1557C60.0669 43.1554 60.0671 43.1551 60.0673 43.1548L74.3282 19.6196C75.1453 18.2717 77.0383 18.2715 77.8554 19.6194L92.1172 43.1561C92.9236 44.4877 92.1195 46.4796 90.3546 46.4796H80.6952V44.4796H90.3546C90.363 44.4796 90.3641 44.4788 90.3684 44.4759C90.3767 44.4703 90.3959 44.4535 90.4134 44.4187C90.4504 44.3452 90.4484 44.2613 90.4066 44.1924L76.1451 20.6562C76.1451 20.6561 76.1451 20.6562 76.1451 20.6562C76.1258 20.6244 76.1101 20.6148 76.1061 20.6126C76.1004 20.6094 76.0958 20.6085 76.0919 20.6085C76.0879 20.6085 76.0833 20.6094 76.0776 20.6126Z"/>
    <path fill-rule="evenodd" clip-rule="evenodd" d="M75.0909 40.9142V28.7398H77.0909V40.9142H75.0909Z" />
    <path fill-rule="evenodd" clip-rule="evenodd" d="M75.0909 47.0014V43.9578H77.0909V47.0014H75.0909Z" />
    <path fill-rule="evenodd" clip-rule="evenodd" d="M42.3754 70.2265L22.856 50.7071L24.2702 49.2929L43.7896 68.8123L42.3754 70.2265Z" />
    <path fill-rule="evenodd" clip-rule="evenodd" d="M22.8557 68.8123L42.3751 49.2929L43.7893 50.7071L24.2699 70.2265L22.8557 68.8123Z" />
</svg>
