<svg width="20" height="23" viewBox="0 0 20 23" fill="none" xmlns="http://www.w3.org/2000/svg">
<path d="M9.45312 5.15332C9.57031 5.15332 9.6289 5.08496 9.6582 4.97754C9.95117 3.34668 9.9414 3.30762 11.6406 2.98535C11.748 2.96582 11.8262 2.89746 11.8262 2.78027C11.8262 2.66309 11.748 2.59473 11.6406 2.5752C9.9414 2.2334 10 2.19434 9.6582 0.583008C9.6289 0.475586 9.57031 0.407227 9.45312 0.407227C9.33594 0.407227 9.26758 0.475586 9.24804 0.583008C8.90625 2.19434 8.96484 2.2334 7.26562 2.5752C7.14844 2.59473 7.08008 2.66309 7.08008 2.78027C7.08008 2.89746 7.14844 2.96582 7.26562 2.98535C8.96484 3.32715 8.94531 3.34668 9.24804 4.97754C9.26758 5.08496 9.33594 5.15332 9.45312 5.15332ZM4.72656 11.8721C4.91211 11.8721 5.03906 11.7549 5.05859 11.5791C5.41015 8.97168 5.49804 8.97168 8.19336 8.4541C8.35937 8.4248 8.48633 8.30762 8.48633 8.12207C8.48633 7.94629 8.35937 7.81934 8.19336 7.79004C5.49804 7.41895 5.40039 7.33105 5.05859 4.6748C5.03906 4.49902 4.91211 4.37207 4.72656 4.37207C4.55078 4.37207 4.42383 4.49902 4.39453 4.68457C4.08203 7.30176 3.93554 7.29199 1.25976 7.79004C1.09375 7.8291 0.966795 7.94629 0.966795 8.12207C0.966795 8.31738 1.09375 8.4248 1.29883 8.4541C3.95508 8.88379 4.08203 8.95215 4.39453 11.5596C4.42383 11.7549 4.55078 11.8721 4.72656 11.8721ZM11.3477 22.6826C11.6016 22.6826 11.7871 22.4971 11.8262 22.2334C12.5195 16.8818 13.2812 16.0713 18.5742 15.4854C18.8477 15.4561 19.0332 15.251 19.0332 14.9971C19.0332 14.7432 18.8477 14.5479 18.5742 14.5088C13.2812 13.9229 12.5195 13.1123 11.8262 7.76074C11.7871 7.49707 11.6016 7.32129 11.3477 7.32129C11.0937 7.32129 10.9082 7.49707 10.8691 7.76074C10.166 13.1123 9.41406 13.9229 4.12109 14.5088C3.84765 14.5479 3.66211 14.7432 3.66211 14.9971C3.66211 15.251 3.84765 15.4561 4.12109 15.4854C9.40429 16.1787 10.1367 16.8916 10.8691 22.2334C10.9082 22.4971 11.0937 22.6826 11.3477 22.6826Z" fill="#697079"/>
</svg>
