<svg width="150" height="151" viewBox="0 0 150 151" fill="none" xmlns="http://www.w3.org/2000/svg">
<path d="M18.8674 82.8418L28.0409 77.398C29.2246 76.825 30.4082 76.252 31.8878 76.252C36.0307 76.252 39.2858 79.4036 39.2858 83.4149C39.2858 85.9935 37.8062 88.2857 35.7348 89.4317L26.5613 94.8755C25.3776 95.7351 24.194 96.0216 22.7144 96.0216C18.5715 96.0216 15.3164 92.8699 15.3164 88.8587C15.3164 86.28 16.796 83.9879 18.8674 82.8418Z" fill="#000" stroke="#000" stroke-width="2" stroke-miterlimit="10"/>
<path d="M30.7053 92.584L39.8788 87.1402C41.0625 86.5672 42.2461 85.9941 43.7257 85.9941C47.8686 85.9941 51.1237 89.1458 51.1237 93.1571C51.1237 95.7357 49.6441 98.0279 47.5727 99.1739L38.3992 104.618C37.2155 105.191 36.0318 105.764 34.5523 105.764C30.4094 105.764 27.1543 102.612 27.1543 98.6009C27.1543 96.0222 28.6339 93.7301 30.7053 92.584Z" fill="#000" stroke="#000" stroke-width="2" stroke-miterlimit="10"/>
<path d="M42.5413 102.326L51.7147 96.8824C52.8984 96.3094 54.0821 95.7363 55.5617 95.7363C59.7045 95.7363 62.9596 98.888 62.9596 102.899C62.9596 105.478 61.48 107.77 59.4086 108.916L50.2351 114.36C49.0515 114.933 47.8678 115.506 46.3882 115.506C42.2453 115.506 38.9902 112.354 38.9902 108.343C38.9902 105.764 40.4698 103.472 42.5413 102.326Z" fill="#000" stroke="#000" stroke-width="2" stroke-miterlimit="10"/>
<path d="M57.3381 110.061L66.5116 104.617C67.6953 104.044 68.8789 103.471 70.3585 103.471C74.5014 103.471 77.7565 106.622 77.7565 110.634C77.7565 113.212 76.2769 115.504 74.2055 116.65L65.032 122.094C63.8483 122.667 62.6647 123.24 61.1851 123.24C57.0422 123.24 53.7871 120.089 53.7871 116.077C53.7871 113.785 55.2667 111.493 57.3381 110.061Z" fill="#000" stroke="#000" stroke-width="2" stroke-miterlimit="10"/>
<path d="M96.9896 79.6904L118.296 92.5836L122.439 95.1623C123.622 95.7353 124.806 96.3084 126.286 96.3084C130.428 96.3084 133.684 93.1567 133.684 89.1454C133.684 86.5668 132.204 84.2747 130.132 83.1286L72.7243 48.7466L65.6223 54.7634V64.505C65.6223 69.3758 61.7754 73.1005 56.7447 73.1005H47.8672V50.1792C47.8672 47.6005 49.0509 45.3084 51.1223 43.5893L68.8774 29.2634C70.357 28.1174 72.4284 27.2578 74.4998 27.2578C75.3876 27.2578 76.2754 27.5443 77.459 27.8308L104.979 36.9994C113.857 39.8646 123.918 39.2915 132.5 35.2803L142.561 30.123" fill='none' stroke="#000" stroke-width="2" stroke-miterlimit="10"/>
<path d="M6.43945 30.123L16.7966 35.2803C25.3782 39.2915 35.1435 40.1511 44.317 36.9994L71.8374 27.8308C72.7252 27.5443 73.6129 27.2578 74.7966 27.2578" fill="none" stroke="#000" stroke-width="2" stroke-miterlimit="10"/>
<path d="M96.9907 79.6914L118.297 92.5847C120.368 93.7307 121.848 96.0229 121.848 98.6015C121.848 102.613 118.593 105.764 114.45 105.764C112.97 105.764 111.787 105.478 110.603 104.618L106.46 102.04L89.2969 91.7251" fill='none' stroke="#000" stroke-width="2" stroke-miterlimit="10"/>
<path d="M81.6035 104.043L91.6647 110.06L98.7668 114.358C99.9505 114.931 101.134 115.504 102.614 115.504C106.757 115.504 110.012 112.352 110.012 108.341C110.012 105.763 108.532 103.47 106.461 102.324L89.2974 92.0098" fill='none' stroke="#000" stroke-width="2" stroke-miterlimit="10"/>
<path d="M18.2764 83.1278C14.4294 80.2627 9.69475 78.8301 4.96006 78.8301H3.48047" stroke="#000" stroke-width="2" stroke-miterlimit="10"/>
<path d="M130.725 83.1278C134.572 80.2627 139.306 78.8301 144.041 78.8301H145.521" stroke="#000" stroke-width="2" stroke-miterlimit="10"/>
<path d="M83.9694 122.381L74.5 116.65" stroke="#000" stroke-width="2" stroke-miterlimit="10"/>
<path d="M81.6035 104.045L91.6647 110.062C93.7362 111.208 95.2158 113.5 95.2158 116.079C95.2158 120.09 91.9607 123.242 87.8178 123.242C86.3382 123.242 85.1545 122.955 83.9709 122.095" fill='none' stroke="#000" stroke-width="2" stroke-miterlimit="10"/>
<path d="M56.7447 61.6406H47.8672" stroke="none" stroke-width="2" stroke-miterlimit="10"/>
<path d="M131.5 82.8926C131.5 82.8926 132.364 79.2792 138.182 79.2792L145.5 78.3926V27.3926L130.909 34.6194C122.473 38.7328 112.873 39.6142 103.855 36.3823L76.8 26.9802C75.9273 26.6864 75.0545 26.3926 74.1818 26.3926C72.1455 26.3926 70.1091 27.274 68.6545 28.4493L51.2 43.14C49.1636 44.9029 48 47.2534 48 49.8977V73.4029H56.7273C61.6727 73.4029 65.4545 69.5833 65.4545 64.5885V54.0111L72.4364 48.1348L128.873 83.3926" fill="#000" />
</svg>
