<svg width="18" height="19" viewBox="0 0 18 19" fill="currentColor" xmlns="http://www.w3.org/2000/svg">
    <path d="M3.76074 1.37402H14.4438C14.394 0.676758 13.9956 0.303223 13.2319 0.303223H4.97266C4.20898 0.303223 3.81055 0.676758 3.76074 1.37402ZM1.96777 3.67334H16.0708C15.9463 2.91797 15.5894 2.50293 14.7593 2.50293H3.2793C2.44922 2.50293 2.09229 2.91797 1.96777 3.67334ZM2.72314 18.98H15.3071C17.042 18.98 17.9136 18.1167 17.9136 16.4067V7.59131C17.9136 5.88135 17.042 5.01807 15.3071 5.01807H2.72314C0.97998 5.01807 0.116699 5.87305 0.116699 7.59131V16.4067C0.116699 18.1167 0.97998 18.98 2.72314 18.98Z"/>
</svg>
