<!-- Generated by IcoMoon.io -->
<svg version="1.1" xmlns="http://www.w3.org/2000/svg" fill="currentColor" width="49" height="32" viewBox="0 0 49 32">
<title>password</title>
<path d="M46.377 4.845l1.172-1.188c0.562-0.578 0.562-1.344 0.016-1.875l-0.375-0.375c-0.5-0.5-1.281-0.453-1.813 0.078l-1.172 1.156 2.172 2.203zM28.424 21.032l3.188-1.422 13.609-13.594-2.187-2.172-13.594 13.594-1.5 3.078c-0.125 0.266 0.187 0.641 0.484 0.516zM5.939 31.314h30.75c2.953 0 4.562-1.547 4.562-4.5v-12.937l-2.516 2.516v10.547c0 1.297-0.734 2.031-2.031 2.031h-30.797c-1.297 0-2.031-0.734-2.031-2.031v-13.141c0-1.297 0.734-2.031 2.031-2.031h25.297l2.36-2.344h-27.625c-2.953 0-4.578 1.547-4.578 4.5v12.891c0 2.953 1.625 4.5 4.578 4.5zM9.892 22.376c1.109 0 2.016-0.906 2.016-2 0-1.109-0.906-2-2.016-2s-2 0.891-2 2c0 1.094 0.891 2 2 2zM16.174 22.376c1.109 0 2.016-0.906 2.016-2 0-1.109-0.906-2-2.016-2-1.125 0-2.016 0.891-2.016 2 0 1.094 0.891 2 2.016 2zM22.439 22.376c1.094 0 2-0.906 2-2 0-1.109-0.906-2-2-2-1.109 0-2.016 0.891-2.016 2 0 1.094 0.906 2 2.016 2z"></path>
</svg>
