<!DOCTYPE svg PUBLIC "-//W3C//DTD SVG 1.1//EN" "http://www.w3.org/Graphics/SVG/1.1/DTD/svg11.dtd"[]>
<svg xmlns="http://www.w3.org/2000/svg" version="1.1" width="39" height="48" style="shape-rendering:geometricPrecision; text-rendering:geometricPrecision; image-rendering:optimizeQuality; fill-rule:evenodd; clip-rule:evenodd" xmlns:xlink="http://www.w3.org/1999/xlink" viewBox="0 0 3000 3000">
    <g>
        <path style="opacity:1" fill="#e8e8df" d="M 413.5,-0.5 C 939.167,-0.5 1464.83,-0.5 1990.5,-0.5C 1996.87,1.18429 2002.87,3.85095 2008.5,7.5C 2008.5,219.167 2008.5,430.833 2008.5,642.5C 2220.17,642.5 2431.83,642.5 2643.5,642.5C 2647.96,651.926 2650.46,661.926 2651,672.5C 2651.5,1144.5 2651.67,1616.5 2651.5,2088.5C 1883.5,2088.5 1115.5,2088.5 347.5,2088.5C 347.333,1420.83 347.5,753.167 348,85.5C 349.544,58.9304 359.377,36.0971 377.5,17C 388.126,8.18601 400.126,2.35268 413.5,-0.5 Z"/>
    </g>
    <g>
        <path style="opacity:1" fill="#d9d7ca" d="M 2008.5,7.5 C 2220.5,218.833 2432.17,430.5 2643.5,642.5C 2431.83,642.5 2220.17,642.5 2008.5,642.5C 2008.5,430.833 2008.5,219.167 2008.5,7.5 Z"/>
    </g>
    <g>
        <path style="opacity:1" fill="#cc4b4c" d="M 1493.5,369.5 C 1507.58,368.03 1520.25,371.53 1531.5,380C 1549.85,397.016 1566.02,415.849 1580,436.5C 1587.11,449.616 1591.45,463.616 1593,478.5C 1595.58,516.255 1594.58,553.921 1590,591.5C 1580.87,656.797 1568.54,721.464 1553,785.5C 1552.33,787.5 1552.33,789.5 1553,791.5C 1617.71,924.363 1697.38,1047.03 1792,1159.5C 1802.13,1171.3 1812.63,1182.8 1823.5,1194C 1826.17,1194.67 1828.83,1194.67 1831.5,1194C 1897.21,1181.14 1963.54,1175.48 2030.5,1177C 2063.99,1177.3 2095.66,1184.96 2125.5,1200C 2167,1227.84 2178.83,1265.34 2161,1312.5C 2146.53,1347.3 2123.69,1375.13 2092.5,1396C 2060.5,1413.48 2026.5,1419.14 1990.5,1413C 1957.3,1405.6 1926.3,1392.94 1897.5,1375C 1860.91,1351.42 1826.91,1324.42 1795.5,1294C 1794.33,1293.83 1793.17,1293.67 1792,1293.5C 1632.79,1328.02 1478.29,1377.18 1328.5,1441C 1325.75,1442.12 1323.25,1443.62 1321,1445.5C 1292.59,1506.19 1261.25,1565.19 1227,1622.5C 1205.69,1657.45 1181.69,1690.45 1155,1721.5C 1135.68,1743.55 1113.18,1761.38 1087.5,1775C 1056.19,1789.07 1025.86,1787.41 996.5,1770C 974.396,1754.23 956.896,1734.4 944,1710.5C 926.279,1668.99 929.279,1628.99 953,1590.5C 972.825,1558.66 997.659,1531.16 1027.5,1508C 1077.63,1469.08 1131.3,1435.41 1188.5,1407C 1210.05,1396.39 1231.71,1386.06 1253.5,1376C 1337.63,1189.94 1405.3,997.937 1456.5,800C 1431.19,744.411 1410.02,687.244 1393,628.5C 1381.02,584.96 1375.68,540.626 1377,495.5C 1379.62,463.978 1389.95,435.312 1408,409.5C 1420.95,391.935 1438.12,380.768 1459.5,376C 1470.96,373.795 1482.29,371.628 1493.5,369.5 Z"/>
    </g>
    <g>
        <path style="opacity:1" fill="#e8e7de" d="M 1484.5,466.5 C 1486.72,467.203 1488.55,468.536 1490,470.5C 1507.83,497.472 1515.16,527.139 1512,559.5C 1509.2,586.705 1502.03,612.705 1490.5,637.5C 1466.47,614.423 1454.14,586.09 1453.5,552.5C 1454.75,520.419 1465.08,491.752 1484.5,466.5 Z"/>
    </g>
    <g>
        <path style="opacity:1" fill="#e8e8df" d="M 1517.5,920.5 C 1565.64,1004.79 1619.14,1085.46 1678,1162.5C 1692.46,1180.63 1707.29,1198.46 1722.5,1216C 1604.21,1244.77 1488.21,1280.77 1374.5,1324C 1429.79,1192.3 1477.46,1057.8 1517.5,920.5 Z"/>
    </g>
    <g>
        <path style="opacity:1" fill="#e8e7de" d="M 1979.5,1266.5 C 2002.19,1266.17 2024.86,1266.67 2047.5,1268C 2057.79,1268.43 2067.46,1271.1 2076.5,1276C 2072.2,1296 2060.2,1309.66 2040.5,1317C 2021.4,1322.94 2002.06,1323.94 1982.5,1320C 1977.34,1317.59 1972.34,1314.92 1967.5,1312C 1951.04,1299.37 1935.04,1286.2 1919.5,1272.5C 1924.04,1271.05 1928.71,1270.22 1933.5,1270C 1948.99,1268.82 1964.32,1267.65 1979.5,1266.5 Z"/>
    </g>
    <g>
        <path style="opacity:1" fill="#e8e7df" d="M 1185.5,1510.5 C 1186.24,1510.37 1186.91,1510.54 1187.5,1511C 1162.16,1557.65 1133.66,1602.15 1102,1644.5C 1089.17,1660 1075,1674.17 1059.5,1687C 1055.51,1689.58 1051.34,1691.74 1047,1693.5C 1021.3,1678.72 1016.3,1658.72 1032,1633.5C 1040.33,1621.69 1049.5,1610.52 1059.5,1600C 1085.7,1576.24 1113.7,1554.91 1143.5,1536C 1157.73,1527.73 1171.73,1519.23 1185.5,1510.5 Z"/>
    </g>
    <g>
        <path style="opacity:0.953" fill="#d26c6c" d="M 347.5,2088.5 C 1115.5,2088.5 1883.5,2088.5 2651.5,2088.5C 2651.5,2368.83 2651.5,2649.17 2651.5,2929.5C 2651.17,2929.5 2650.83,2929.5 2650.5,2929.5C 2650.5,2649.5 2650.5,2369.5 2650.5,2089.5C 1883.17,2089.5 1115.83,2089.5 348.5,2089.5C 348.5,2369.83 348.5,2650.17 348.5,2930.5C 348.167,2930.5 347.833,2930.5 347.5,2930.5C 347.5,2649.83 347.5,2369.17 347.5,2088.5 Z"/>
    </g>
    <g>
        <path style="opacity:1" fill="#cc4b4c" d="M 2650.5,2929.5 C 2646.79,2958.2 2632.12,2979.2 2606.5,2992.5C 2604.45,2992.4 2602.78,2993.07 2601.5,2994.5C 2596.34,2996.79 2591.01,2998.46 2585.5,2999.5C 1861.5,2999.5 1137.5,2999.5 413.5,2999.5C 411.5,2998.83 409.5,2998.17 407.5,2997.5C 405.485,2996.08 403.152,2995.41 400.5,2995.5C 400.167,2995.5 399.833,2995.5 399.5,2995.5C 398.365,2993.79 396.698,2993.12 394.5,2993.5C 393.508,2993.67 392.842,2993.34 392.5,2992.5C 367.338,2979.33 352.671,2958.66 348.5,2930.5C 348.5,2650.17 348.5,2369.83 348.5,2089.5C 1115.83,2089.5 1883.17,2089.5 2650.5,2089.5C 2650.5,2369.5 2650.5,2649.5 2650.5,2929.5 Z"/>
    </g>
    <g>
        <path style="opacity:1" fill="#e7abab" d="M 1008.5,2299.5 C 953.5,2299.5 898.5,2299.5 843.5,2299.5C 843.5,2479.17 843.5,2658.83 843.5,2838.5C 872.5,2838.5 901.5,2838.5 930.5,2838.5C 901.338,2839.5 872.005,2839.83 842.5,2839.5C 842.5,2659.17 842.5,2478.83 842.5,2298.5C 898.003,2298.17 953.336,2298.5 1008.5,2299.5 Z"/>
    </g>
    <g>
        <path style="opacity:1" fill="#fefefe" d="M 1008.5,2299.5 C 1066.96,2302.15 1115.12,2325.48 1153,2369.5C 1181.99,2407.81 1192.33,2450.81 1184,2498.5C 1173.54,2561.27 1139.04,2604.77 1080.5,2629C 1055.69,2638.45 1030.02,2643.29 1003.5,2643.5C 979.167,2643.5 954.833,2643.5 930.5,2643.5C 930.5,2708.5 930.5,2773.5 930.5,2838.5C 901.5,2838.5 872.5,2838.5 843.5,2838.5C 843.5,2658.83 843.5,2479.17 843.5,2299.5C 898.5,2299.5 953.5,2299.5 1008.5,2299.5 Z"/>
    </g>
    <g>
        <path style="opacity:1" fill="#f1cdcd" d="M 1463.5,2299.5 C 1405.83,2299.5 1348.17,2299.5 1290.5,2299.5C 1290.5,2479.17 1290.5,2658.83 1290.5,2838.5C 1289.5,2658.67 1289.17,2478.67 1289.5,2298.5C 1347.67,2298.17 1405.67,2298.5 1463.5,2299.5 Z"/>
    </g>
    <g>
        <path style="opacity:1" fill="#fefefe" d="M 1463.5,2299.5 C 1528.36,2299.95 1586.36,2319.78 1637.5,2359C 1691.91,2406.66 1721.08,2466.83 1725,2539.5C 1729.29,2606.48 1716.29,2669.81 1686,2729.5C 1667.39,2763.9 1640.89,2790.4 1606.5,2809C 1575.04,2826.38 1541.37,2836.04 1505.5,2838C 1433.83,2838.5 1362.17,2838.67 1290.5,2838.5C 1290.5,2658.83 1290.5,2479.17 1290.5,2299.5C 1348.17,2299.5 1405.83,2299.5 1463.5,2299.5 Z"/>
    </g>
    <g>
        <path style="opacity:1" fill="#e5a5a5" d="M 2190.5,2299.5 C 2078.17,2299.5 1965.83,2299.5 1853.5,2299.5C 1853.5,2479.17 1853.5,2658.83 1853.5,2838.5C 1883.17,2838.5 1912.83,2838.5 1942.5,2838.5C 1912.67,2839.5 1882.67,2839.83 1852.5,2839.5C 1852.5,2659.17 1852.5,2478.83 1852.5,2298.5C 1965.33,2298.17 2078,2298.5 2190.5,2299.5 Z"/>
    </g>
    <g>
        <path style="opacity:1" fill="#fefefe" d="M 2190.5,2299.5 C 2190.5,2321.5 2190.5,2343.5 2190.5,2365.5C 2107.83,2365.5 2025.17,2365.5 1942.5,2365.5C 1942.5,2422.17 1942.5,2478.83 1942.5,2535.5C 2017.5,2535.5 2092.5,2535.5 2167.5,2535.5C 2167.5,2555.5 2167.5,2575.5 2167.5,2595.5C 2092.5,2595.5 2017.5,2595.5 1942.5,2595.5C 1942.5,2676.5 1942.5,2757.5 1942.5,2838.5C 1912.83,2838.5 1883.17,2838.5 1853.5,2838.5C 1853.5,2658.83 1853.5,2479.17 1853.5,2299.5C 1965.83,2299.5 2078.17,2299.5 2190.5,2299.5 Z"/>
    </g>
    <g>
        <path style="opacity:1" fill="#dc8485" d="M 1006.5,2366.5 C 981.5,2366.5 956.5,2366.5 931.5,2366.5C 931.5,2437.5 931.5,2508.5 931.5,2579.5C 930.501,2508.34 930.167,2437 930.5,2365.5C 956.005,2365.17 981.339,2365.5 1006.5,2366.5 Z"/>
    </g>
    <g>
        <path style="opacity:1" fill="#cc4b4c" d="M 1006.5,2366.5 C 1061.64,2369.14 1093.14,2397.81 1101,2452.5C 1104.05,2483.9 1098.38,2513.56 1084,2541.5C 1068.74,2564.37 1047.24,2576.87 1019.5,2579C 990.169,2579.5 960.835,2579.67 931.5,2579.5C 931.5,2508.5 931.5,2437.5 931.5,2366.5C 956.5,2366.5 981.5,2366.5 1006.5,2366.5 Z"/>
    </g>
    <g>
        <path style="opacity:1" fill="#d26464" d="M 1446.5,2366.5 C 1423.83,2366.5 1401.17,2366.5 1378.5,2366.5C 1378.5,2502.17 1378.5,2637.83 1378.5,2773.5C 1411.5,2773.5 1444.5,2773.5 1477.5,2773.5C 1444.34,2774.5 1411,2774.83 1377.5,2774.5C 1377.5,2638.17 1377.5,2501.83 1377.5,2365.5C 1400.67,2365.17 1423.67,2365.5 1446.5,2366.5 Z"/>
    </g>
    <g>
        <path style="opacity:1" fill="#cc4b4c" d="M 1446.5,2366.5 C 1488.13,2366.41 1526.8,2376.91 1562.5,2398C 1597.92,2421.65 1619.76,2454.48 1628,2496.5C 1636.39,2551.36 1633.73,2605.69 1620,2659.5C 1600.54,2732.64 1553.04,2770.64 1477.5,2773.5C 1444.5,2773.5 1411.5,2773.5 1378.5,2773.5C 1378.5,2637.83 1378.5,2502.17 1378.5,2366.5C 1401.17,2366.5 1423.83,2366.5 1446.5,2366.5 Z"/>
    </g>
    <g>
        <path style="opacity:1" fill="#dc8485" d="M 1003.5,2643.5 C 979.672,2644.5 955.672,2644.83 931.5,2644.5C 931.832,2709.34 931.499,2774 930.5,2838.5C 930.5,2773.5 930.5,2708.5 930.5,2643.5C 954.833,2643.5 979.167,2643.5 1003.5,2643.5 Z"/>
    </g>
    <g>
        <path style="opacity:0.908" fill="#e8e2d9" d="M 347.5,2930.5 C 347.833,2930.5 348.167,2930.5 348.5,2930.5C 352.671,2958.66 367.338,2979.33 392.5,2992.5C 372.098,2984.93 357.265,2971.27 348,2951.5C 347.5,2944.51 347.334,2937.51 347.5,2930.5 Z"/>
    </g>
    <g>
        <path style="opacity:0.908" fill="#e8e2d9" d="M 2650.5,2929.5 C 2650.83,2929.5 2651.17,2929.5 2651.5,2929.5C 2653.84,2943.16 2651.01,2955.49 2643,2966.5C 2633.1,2978.52 2620.94,2987.18 2606.5,2992.5C 2632.12,2979.2 2646.79,2958.2 2650.5,2929.5 Z"/>
    </g>
    <g>
        <path style="opacity:1" fill="#dfa39d" d="M 394.5,2993.5 C 396.698,2993.12 398.365,2993.79 399.5,2995.5C 397.597,2995.2 395.93,2994.54 394.5,2993.5 Z"/>
    </g>
    <g>
        <path style="opacity:0.424" fill="#e4c6c0" d="M 2606.5,2992.5 C 2605.22,2993.93 2603.55,2994.6 2601.5,2994.5C 2602.78,2993.07 2604.45,2992.4 2606.5,2992.5 Z"/>
    </g>
    <g>
        <path style="opacity:0.992" fill="#da908c" d="M 400.5,2995.5 C 403.152,2995.41 405.485,2996.08 407.5,2997.5C 404.848,2997.59 402.515,2996.92 400.5,2995.5 Z"/>
    </g>
</svg>
