<svg width="21" height="21" viewBox="0 0 21 21" fill="none" xmlns="http://www.w3.org/2000/svg">
<path d="M10.709 20.9102C16.1582 20.9102 20.6699 16.3984 20.6699 10.9492C20.6699 5.50977 16.1484 0.988281 10.6992 0.988281C5.25977 0.988281 0.748047 5.50977 0.748047 10.9492C0.748047 16.3984 5.26953 20.9102 10.709 20.9102ZM10.6895 15.8125C10.1328 15.8125 9.83984 15.4121 9.83984 14.8457V11.8086H6.63672C6.06055 11.8086 5.66016 11.5059 5.66016 10.9688C5.66016 10.4121 6.04102 10.0996 6.63672 10.0996H9.83984V6.86719C9.83984 6.30078 10.1328 5.90039 10.6895 5.90039C11.2363 5.90039 11.5586 6.28125 11.5586 6.86719V10.0996H14.7715C15.3672 10.0996 15.7383 10.4121 15.7383 10.9688C15.7383 11.5059 15.3477 11.8086 14.7715 11.8086H11.5586V14.8457C11.5586 15.4316 11.2363 15.8125 10.6895 15.8125Z" fill="black"/>
</svg>
