<!DOCTYPE svg PUBLIC "-//W3C//DTD SVG 1.1//EN" "http://www.w3.org/Graphics/SVG/1.1/DTD/svg11.dtd"[]>
<svg xmlns="http://www.w3.org/2000/svg" version="1.1" width="39" height="48" style="shape-rendering:geometricPrecision; text-rendering:geometricPrecision; image-rendering:optimizeQuality; fill-rule:evenodd; clip-rule:evenodd" xmlns:xlink="http://www.w3.org/1999/xlink" viewBox="0 0 3000 3000">
    <g>
        <path style="opacity:1" fill="#e8e8df" d="M 413.5,-0.5 C 939.167,-0.5 1464.83,-0.5 1990.5,-0.5C 1996.87,1.18429 2002.87,3.85095 2008.5,7.5C 2008.5,219.167 2008.5,430.833 2008.5,642.5C 2220.17,642.5 2431.83,642.5 2643.5,642.5C 2647.96,651.926 2650.46,661.926 2651,672.5C 2651.5,948.166 2651.67,1223.83 2651.5,1499.5C 2651.17,1499.5 2650.83,1499.5 2650.5,1499.5C 2472.82,1329.66 2294.66,1160.32 2116,991.5C 2112.71,993.782 2109.71,996.449 2107,999.5C 1922.7,1202.13 1738.04,1404.47 1553,1606.5C 1455.32,1508.65 1357.49,1410.99 1259.5,1313.5C 955.828,1571.18 652.495,1829.18 349.5,2087.5C 348.833,2087.83 348.167,2088.17 347.5,2088.5C 347.333,1420.83 347.5,753.167 348,85.5C 349.544,58.9304 359.377,36.0971 377.5,17C 388.126,8.18601 400.126,2.35268 413.5,-0.5 Z"/>
    </g>
    <g>
        <path style="opacity:1" fill="#d9d7ca" d="M 2008.5,7.5 C 2220.5,218.833 2432.17,430.5 2643.5,642.5C 2431.83,642.5 2220.17,642.5 2008.5,642.5C 2008.5,430.833 2008.5,219.167 2008.5,7.5 Z"/>
    </g>
    <g>
        <path style="opacity:1" fill="#f2d55b" d="M 996.5,527.5 C 1081.06,524.825 1150.56,555.491 1205,619.5C 1259.96,692.247 1272.62,771.914 1243,858.5C 1212.78,934.387 1158.61,984.221 1080.5,1008C 986.972,1031.16 905.806,1009.33 837,942.5C 771.963,869.663 753.63,786.33 782,692.5C 811.304,615.862 864.804,564.362 942.5,538C 960.389,533.187 978.389,529.687 996.5,527.5 Z"/>
    </g>
    <g>
        <path style="opacity:1" fill="#88c057" d="M 2650.5,1499.5 C 2650.5,1695.83 2650.5,1892.17 2650.5,2088.5C 1883.33,2088.83 1116.33,2088.5 349.5,2087.5C 652.495,1829.18 955.828,1571.18 1259.5,1313.5C 1357.49,1410.99 1455.32,1508.65 1553,1606.5C 1738.04,1404.47 1922.7,1202.13 2107,999.5C 2109.71,996.449 2112.71,993.782 2116,991.5C 2294.66,1160.32 2472.82,1329.66 2650.5,1499.5 Z"/>
    </g>
    <g>
        <path style="opacity:1" fill="#86b35e" d="M 2650.5,1499.5 C 2650.83,1499.5 2651.17,1499.5 2651.5,1499.5C 2651.5,1976.5 2651.5,2453.5 2651.5,2930.5C 2651.17,2930.5 2650.83,2930.5 2650.5,2930.5C 2650.5,2650.17 2650.5,2369.83 2650.5,2089.5C 1883.17,2089.5 1115.83,2089.5 348.5,2089.5C 348.5,2369.83 348.5,2650.17 348.5,2930.5C 348.167,2930.5 347.833,2930.5 347.5,2930.5C 347.5,2649.83 347.5,2369.17 347.5,2088.5C 348.167,2088.17 348.833,2087.83 349.5,2087.5C 1116.33,2088.5 1883.33,2088.83 2650.5,2088.5C 2650.5,1892.17 2650.5,1695.83 2650.5,1499.5 Z"/>
    </g>
    <g>
        <path style="opacity:1" fill="#659c35" d="M 2650.5,2930.5 C 2646.33,2958.66 2631.66,2979.33 2606.5,2992.5C 2599.81,2995.84 2592.81,2998.17 2585.5,2999.5C 1861.5,2999.5 1137.5,2999.5 413.5,2999.5C 411.5,2998.83 409.5,2998.17 407.5,2997.5C 405.485,2996.08 403.152,2995.41 400.5,2995.5C 400.167,2995.5 399.833,2995.5 399.5,2995.5C 397.824,2993.17 395.491,2992.17 392.5,2992.5C 367.349,2979.34 352.683,2958.67 348.5,2930.5C 348.5,2650.17 348.5,2369.83 348.5,2089.5C 1115.83,2089.5 1883.17,2089.5 2650.5,2089.5C 2650.5,2369.83 2650.5,2650.17 2650.5,2930.5 Z"/>
    </g>
    <g>
        <path style="opacity:1" fill="#fefefe" d="M 2002.5,2290.5 C 2052.04,2286.57 2098.37,2296.74 2141.5,2321C 2154.08,2329.13 2165.75,2338.47 2176.5,2349C 2156.62,2367.19 2136.45,2385.02 2116,2402.5C 2092.31,2375.76 2062.47,2362.42 2026.5,2362.5C 1979.13,2363.43 1943.96,2384.43 1921,2425.5C 1902.89,2460.59 1893.23,2497.92 1892,2537.5C 1888.03,2589.19 1894.36,2639.52 1911,2688.5C 1921.7,2717.77 1939.54,2741.6 1964.5,2760C 1982.34,2772 2002.01,2777.84 2023.5,2777.5C 2052.14,2777.84 2079.8,2773.01 2106.5,2763C 2110.46,2760.77 2113.96,2757.93 2117,2754.5C 2117.5,2709.83 2117.67,2665.17 2117.5,2620.5C 2086.83,2620.5 2056.17,2620.5 2025.5,2620.5C 2025.5,2600.5 2025.5,2580.5 2025.5,2560.5C 2085.17,2560.5 2144.83,2560.5 2204.5,2560.5C 2204.67,2630.17 2204.5,2699.83 2204,2769.5C 2190.58,2786.59 2174.42,2800.42 2155.5,2811C 2114.49,2833.04 2070.66,2843.54 2024,2842.5C 1942.61,2840.68 1881.28,2805.01 1840,2735.5C 1812.7,2682.2 1799.87,2625.54 1801.5,2565.5C 1800.39,2514.06 1809.89,2464.73 1830,2417.5C 1864.46,2343.87 1921.96,2301.54 2002.5,2290.5 Z"/>
    </g>
    <g>
        <path style="opacity:1" fill="#bbd3a6" d="M 1007.5,2299.5 C 952.833,2299.5 898.167,2299.5 843.5,2299.5C 843.5,2479.17 843.5,2658.83 843.5,2838.5C 842.5,2658.67 842.167,2478.67 842.5,2298.5C 897.669,2298.17 952.669,2298.5 1007.5,2299.5 Z"/>
    </g>
    <g>
        <path style="opacity:1" fill="#fefefe" d="M 1007.5,2299.5 C 1063.83,2301.59 1111,2323.25 1149,2364.5C 1186.42,2411.3 1196.42,2463.63 1179,2521.5C 1163.89,2573.54 1131.06,2609.37 1080.5,2629C 1056.31,2638.13 1031.31,2642.97 1005.5,2643.5C 980.5,2643.5 955.5,2643.5 930.5,2643.5C 930.5,2708.5 930.5,2773.5 930.5,2838.5C 901.5,2838.5 872.5,2838.5 843.5,2838.5C 843.5,2658.83 843.5,2479.17 843.5,2299.5C 898.167,2299.5 952.833,2299.5 1007.5,2299.5 Z"/>
    </g>
    <g>
        <path style="opacity:1" fill="#d2e2c3" d="M 1376.5,2299.5 C 1346.83,2299.5 1317.17,2299.5 1287.5,2299.5C 1287.5,2479.17 1287.5,2658.83 1287.5,2838.5C 1286.5,2658.67 1286.17,2478.67 1286.5,2298.5C 1316.67,2298.17 1346.67,2298.5 1376.5,2299.5 Z"/>
    </g>
    <g>
        <path style="opacity:1" fill="#fefefe" d="M 1376.5,2299.5 C 1446.51,2422.86 1516.51,2546.19 1586.5,2669.5C 1586.56,2670.04 1586.89,2670.38 1587.5,2670.5C 1588.5,2546.84 1588.83,2423.17 1588.5,2299.5C 1617.83,2299.5 1647.17,2299.5 1676.5,2299.5C 1676.5,2479.17 1676.5,2658.83 1676.5,2838.5C 1646.59,2838.83 1616.76,2838.5 1587,2837.5C 1517.15,2714.47 1447.32,2591.47 1377.5,2468.5C 1377.44,2467.96 1377.11,2467.62 1376.5,2467.5C 1375.5,2591.16 1375.17,2714.83 1375.5,2838.5C 1346.17,2838.5 1316.83,2838.5 1287.5,2838.5C 1287.5,2658.83 1287.5,2479.17 1287.5,2299.5C 1317.17,2299.5 1346.83,2299.5 1376.5,2299.5 Z"/>
    </g>
    <g>
        <path style="opacity:1" fill="#d3e2c6" d="M 1587.5,2299.5 C 1587.83,2299.5 1588.17,2299.5 1588.5,2299.5C 1588.83,2423.17 1588.5,2546.84 1587.5,2670.5C 1586.89,2670.38 1586.56,2670.04 1586.5,2669.5C 1587.5,2546.33 1587.83,2423 1587.5,2299.5 Z"/>
    </g>
    <g>
        <path style="opacity:1" fill="#c5dab3" d="M 1587.5,2299.5 C 1617.33,2298.5 1647.33,2298.17 1677.5,2298.5C 1677.83,2478.67 1677.5,2658.67 1676.5,2838.5C 1676.5,2658.83 1676.5,2479.17 1676.5,2299.5C 1647.17,2299.5 1617.83,2299.5 1588.5,2299.5C 1588.17,2299.5 1587.83,2299.5 1587.5,2299.5 Z"/>
    </g>
    <g>
        <path style="opacity:1" fill="#95bb75" d="M 1007.5,2366.5 C 982.167,2366.5 956.833,2366.5 931.5,2366.5C 931.5,2437.5 931.5,2508.5 931.5,2579.5C 930.501,2508.34 930.167,2437 930.5,2365.5C 956.339,2365.17 982.005,2365.5 1007.5,2366.5 Z"/>
    </g>
    <g>
        <path style="opacity:1" fill="#659c35" d="M 1007.5,2366.5 C 1062.13,2369.63 1093.29,2398.29 1101,2452.5C 1102.6,2476.34 1099.94,2499.67 1093,2522.5C 1080.33,2556.6 1055.83,2575.43 1019.5,2579C 990.169,2579.5 960.835,2579.67 931.5,2579.5C 931.5,2508.5 931.5,2437.5 931.5,2366.5C 956.833,2366.5 982.167,2366.5 1007.5,2366.5 Z"/>
    </g>
    <g>
        <path style="opacity:1" fill="#c6dab4" d="M 1377.5,2468.5 C 1376.83,2591.83 1376.17,2715.17 1375.5,2838.5C 1375.17,2714.83 1375.5,2591.16 1376.5,2467.5C 1377.11,2467.62 1377.44,2467.96 1377.5,2468.5 Z"/>
    </g>
    <g>
        <path style="opacity:1" fill="#95bb75" d="M 1005.5,2643.5 C 981.006,2644.5 956.339,2644.83 931.5,2644.5C 931.832,2709.34 931.499,2774 930.5,2838.5C 930.5,2773.5 930.5,2708.5 930.5,2643.5C 955.5,2643.5 980.5,2643.5 1005.5,2643.5 Z"/>
    </g>
    <g>
        <path style="opacity:0.908" fill="#e4e6da" d="M 347.5,2930.5 C 347.833,2930.5 348.167,2930.5 348.5,2930.5C 352.683,2958.67 367.349,2979.34 392.5,2992.5C 372.098,2984.93 357.265,2971.27 348,2951.5C 347.5,2944.51 347.334,2937.51 347.5,2930.5 Z"/>
    </g>
    <g>
        <path style="opacity:0.908" fill="#e4e6d9" d="M 2650.5,2930.5 C 2650.83,2930.5 2651.17,2930.5 2651.5,2930.5C 2653.81,2943.84 2650.98,2955.84 2643,2966.5C 2633.1,2978.52 2620.94,2987.18 2606.5,2992.5C 2631.66,2979.33 2646.33,2958.66 2650.5,2930.5 Z"/>
    </g>
    <g>
        <path style="opacity:1" fill="#a9c48d" d="M 392.5,2992.5 C 395.491,2992.17 397.824,2993.17 399.5,2995.5C 396.843,2995.07 394.509,2994.07 392.5,2992.5 Z"/>
    </g>
    <g>
        <path style="opacity:0.992" fill="#9ebc7f" d="M 400.5,2995.5 C 403.152,2995.41 405.485,2996.08 407.5,2997.5C 404.848,2997.59 402.515,2996.92 400.5,2995.5 Z"/>
    </g>
</svg>
