<!-- Generated by IcoMoon.io -->
<svg version="1.1" xmlns="http://www.w3.org/2000/svg" fill="currentColor" width="32" height="32" viewBox="0 0 32 32">
<title>profile</title>
<path d="M16.064 31.358c8.26 0 15.099-6.839 15.099-15.099 0-8.245-6.854-15.099-15.113-15.099-8.245 0-15.084 6.854-15.084 15.099 0 8.26 6.854 15.099 15.099 15.099zM16.064 7.734c2.842 0 5.077 2.487 5.077 5.477 0 3.183-2.235 5.61-5.077 5.581s-5.077-2.398-5.077-5.581c-0.015-2.99 2.235-5.477 5.077-5.477zM25.064 25.023l0.044 0.192c-2.265 2.428-5.64 3.819-9.044 3.819s-6.78-1.392-9.044-3.819l0.044-0.192c1.273-1.776 4.456-3.715 9-3.715 4.559 0 7.727 1.939 9 3.715z"></path>
</svg>
