<svg width="17" height="18" viewBox="0 0 17 18" fill="#697079" xmlns="http://www.w3.org/2000/svg">
<path d="M14.0703 6.62842C15.6475 6.62842 16.9507 5.3252 16.9507 3.74805C16.9507 2.1709 15.6558 0.867676 14.0703 0.867676C12.4932 0.867676 11.1982 2.1709 11.1982 3.74805C11.1982 5.3252 12.4932 6.62842 14.0703 6.62842ZM0.116699 13.2109C0.116699 14.6304 0.241211 15.8091 1.08789 16.6558C1.93457 17.5024 3.12988 17.6353 4.54932 17.6353H10.999C12.4102 17.6353 13.6055 17.5024 14.4521 16.6558C15.2988 15.8091 15.4233 14.6304 15.4233 13.2109V7.55811C15.0581 7.68262 14.6597 7.74902 14.2446 7.74072C14.1865 7.74902 14.145 7.74902 14.0869 7.75732V13.4351C14.0869 14.2983 13.979 15.1782 13.481 15.6846C12.9746 16.1826 12.0781 16.2988 11.2231 16.2988H4.31689C3.46191 16.2988 2.56543 16.1826 2.06738 15.6846C1.56104 15.1782 1.45312 14.2983 1.45312 13.4351V6.62012C1.45312 5.74854 1.56104 4.85205 2.05908 4.354C2.56543 3.84766 3.47021 3.73975 4.3418 3.73975H10.0693C10.0693 3.68164 10.0776 3.63184 10.0859 3.58203C10.0776 3.16699 10.1357 2.76855 10.2686 2.40332H4.52441C3.12988 2.40332 1.93457 2.53613 1.08789 3.38281C0.241211 4.22949 0.116699 5.4165 0.116699 6.80273V13.2109Z"/>
</svg>
