<!-- Generated by IcoMoon.io -->
<svg version="1.1" xmlns="http://www.w3.org/2000/svg" fill="currentColor" width="32" height="32" viewBox="0 0 32 32">
<title>qr-code</title>
<path d="M20.495 14.026h7.465c2.084 0 3.134-1.050 3.134-3.216v-7.334c0-2.166-1.050-3.199-3.134-3.199h-7.465c-2.1 0-3.15 1.034-3.15 3.199v7.334c0 2.166 1.050 3.216 3.15 3.216zM4.023 14.026h7.481c2.084 0 3.134-1.050 3.134-3.216v-7.334c0-2.166-1.050-3.199-3.134-3.199h-7.481c-2.084 0-3.134 1.034-3.134 3.199v7.334c0 2.166 1.050 3.216 3.134 3.216zM4.056 11.713c-0.574 0-0.853-0.295-0.853-0.902v-7.334c0-0.591 0.279-0.886 0.853-0.886h7.399c0.574 0 0.87 0.295 0.87 0.886v7.334c0 0.607-0.295 0.902-0.87 0.902h-7.399zM20.528 11.713c-0.591 0-0.87-0.295-0.87-0.902v-7.334c0-0.591 0.279-0.886 0.87-0.886h7.399c0.574 0 0.853 0.295 0.853 0.886v7.334c0 0.607-0.279 0.902-0.853 0.902h-7.399zM6.353 8.874h2.805c0.23 0 0.328-0.098 0.328-0.377v-2.723c0-0.263-0.098-0.361-0.328-0.361h-2.805c-0.246 0-0.328 0.098-0.328 0.361v2.723c0 0.279 0.082 0.377 0.328 0.377zM22.907 8.874h2.805c0.246 0 0.344-0.098 0.344-0.377v-2.723c0-0.263-0.098-0.361-0.344-0.361h-2.805c-0.23 0-0.312 0.098-0.312 0.361v2.723c0 0.279 0.082 0.377 0.312 0.377zM4.023 30.481h7.481c2.084 0 3.134-1.034 3.134-3.199v-7.35c0-2.149-1.050-3.199-3.134-3.199h-7.481c-2.084 0-3.134 1.050-3.134 3.199v7.35c0 2.166 1.050 3.199 3.134 3.199zM18.461 20.982h2.805c0.23 0 0.328-0.099 0.328-0.377v-2.723c0-0.263-0.098-0.361-0.328-0.361h-2.805c-0.246 0-0.328 0.098-0.328 0.361v2.723c0 0.279 0.082 0.377 0.328 0.377zM27.173 20.982h2.805c0.23 0 0.328-0.099 0.328-0.377v-2.723c0-0.263-0.098-0.361-0.328-0.361h-2.805c-0.246 0-0.328 0.098-0.328 0.361v2.723c0 0.279 0.082 0.377 0.328 0.377zM4.056 28.168c-0.574 0-0.853-0.295-0.853-0.886v-7.334c0-0.607 0.279-0.902 0.853-0.902h7.399c0.574 0 0.87 0.295 0.87 0.902v7.334c0 0.591-0.295 0.886-0.87 0.886h-7.399zM6.353 25.346h2.805c0.23 0 0.328-0.098 0.328-0.394v-2.707c0-0.262-0.098-0.361-0.328-0.361h-2.805c-0.246 0-0.328 0.099-0.328 0.361v2.707c0 0.295 0.082 0.394 0.328 0.394zM22.858 25.346h2.805c0.23 0 0.328-0.098 0.328-0.394v-2.707c0-0.262-0.098-0.361-0.328-0.361h-2.805c-0.246 0-0.328 0.099-0.328 0.361v2.707c0 0.295 0.082 0.394 0.328 0.394zM18.461 29.694h2.805c0.23 0 0.328-0.098 0.328-0.377v-2.724c0-0.263-0.098-0.361-0.328-0.361h-2.805c-0.246 0-0.328 0.098-0.328 0.361v2.724c0 0.279 0.082 0.377 0.328 0.377zM27.173 29.694h2.805c0.23 0 0.328-0.098 0.328-0.377v-2.724c0-0.263-0.098-0.361-0.328-0.361h-2.805c-0.246 0-0.328 0.098-0.328 0.361v2.724c0 0.279 0.082 0.377 0.328 0.377z"></path>
</svg>
