<svg width="191" height="187" viewBox="0 0 191 187" fill="#34C759" xmlns="http://www.w3.org/2000/svg">
    <path fill-rule="evenodd" clip-rule="evenodd" d="M99.3557 116.512C99.356 116.512 99.3562 116.512 99.261 118.009L99.3557 116.512C100.182 116.565 100.811 117.277 100.758 118.104C100.705 118.931 99.9924 119.559 99.1657 119.506L99.261 118.009C99.1657 119.505 99.1658 119.506 99.1657 119.506L99.0768 119.5C99.0171 119.497 98.9279 119.491 98.8111 119.484C98.5774 119.471 98.2332 119.451 97.793 119.427C96.9125 119.379 95.6483 119.316 94.1167 119.252C91.0521 119.125 86.9244 118.998 82.662 118.998C78.3916 118.998 74.022 119.125 70.461 119.499C68.6781 119.686 67.1374 119.931 65.9302 120.241C64.6639 120.565 63.9813 120.908 63.7086 121.156C60.9612 123.654 60.4292 125.603 60.4036 126.74C60.3935 127.183 60.4585 127.548 60.539 127.826C78.3574 128.245 92.105 130.646 100.868 132.72C104.422 133.562 110.446 135.966 116.197 138.626C121.945 141.284 127.648 144.303 130.523 146.443C131.187 146.938 131.325 147.878 130.83 148.542C130.336 149.207 129.396 149.344 128.731 148.85C126.128 146.912 120.675 144.002 114.938 141.349C109.203 138.697 103.414 136.406 100.177 135.64C91.4431 133.572 77.5803 131.156 59.545 130.805C59.0783 130.796 58.6425 130.571 58.3659 130.195L59.5742 129.306C58.3659 130.195 58.3652 130.194 58.3644 130.193L58.3629 130.19L58.3596 130.186L58.3522 130.176L58.3345 130.15C58.3214 130.132 58.3058 130.109 58.2881 130.082C58.2528 130.028 58.209 129.957 58.1599 129.871C58.0619 129.698 57.9417 129.46 57.8262 129.161C57.5947 128.563 57.3807 127.717 57.4043 126.672C57.4527 124.533 58.4834 121.852 61.6904 118.936C62.5389 118.164 63.8397 117.679 65.186 117.334C66.5915 116.974 68.2926 116.71 70.1476 116.515C73.8623 116.125 78.3528 115.998 82.6622 115.998C86.9795 115.998 91.1512 116.127 94.2411 116.255C95.7868 116.319 97.0636 116.383 97.9548 116.431C98.4005 116.455 98.7498 116.476 98.9882 116.49C99.1074 116.497 99.1989 116.502 99.2608 116.506L99.3557 116.512Z" />
    <path fill-rule="evenodd" clip-rule="evenodd" d="M9.08161 114.038C15.4363 112.057 25.8088 111.211 41.5909 113.493C47.2381 114.309 60.9194 115.576 70.9842 116.458C71.8094 116.531 72.4198 117.258 72.3474 118.084C72.2751 118.909 71.5474 119.519 70.7222 119.447C60.6934 118.568 46.912 117.293 41.1616 116.462L41.1615 116.462C25.6128 114.213 15.7373 115.106 9.97412 116.902C7.0873 117.801 5.32038 118.9 4.36757 119.858C3.5286 120.702 3.4512 121.273 3.47639 121.511C3.54654 121.562 3.71716 121.67 4.081 121.814C4.77893 122.089 5.82928 122.36 7.32002 122.683C8.14206 122.862 9.08126 123.052 10.1316 123.265C12.7993 123.806 16.1841 124.492 20.1885 125.493C31.4139 128.298 47.7055 133.612 68.6393 145.461L67.9004 146.766L68.6393 145.461C78.8309 151.23 90.9065 153.133 104.448 154.924C105.436 155.055 106.432 155.185 107.435 155.316C120.092 156.969 133.859 158.768 147.99 163.811C148.77 164.089 149.177 164.948 148.898 165.728C148.62 166.508 147.762 166.915 146.982 166.636C133.166 161.706 119.7 159.945 107.004 158.285C106.016 158.156 105.033 158.028 104.055 157.898C90.5795 156.116 77.9329 154.169 67.1615 148.072C46.4895 136.371 30.455 131.151 19.4612 128.404C15.5263 127.42 12.2616 126.758 9.60932 126.221C8.53522 126.003 7.56152 125.805 6.6844 125.615C5.19875 125.293 3.93024 124.979 2.97976 124.604C2.12919 124.269 1.02188 123.697 0.644162 122.538C0.0989953 120.877 0.858354 119.133 2.23985 117.744C3.65 116.325 5.90949 115.026 9.08161 114.038Z" />
    <path fill-rule="evenodd" clip-rule="evenodd" d="M174.348 133.382C175.09 133.014 175.991 133.316 176.359 134.058L190.226 161.958C190.407 162.32 190.433 162.74 190.299 163.122C190.164 163.504 189.882 163.816 189.514 163.986L155.031 179.982C154.302 180.32 153.436 180.024 153.067 179.31L146.148 165.914C145.961 165.552 145.929 165.129 146.06 164.743C146.191 164.357 146.474 164.041 146.842 163.868L180.067 148.257L173.673 135.393C173.304 134.651 173.607 133.751 174.348 133.382ZM181.402 150.945L149.528 165.921L155.073 176.656L186.854 161.913L181.402 150.945Z" />
    <path fill-rule="evenodd" clip-rule="evenodd" d="M100.863 119.437C100.456 119.477 100.056 119.516 99.6634 119.554L99.3736 116.568C99.7692 116.53 100.173 116.49 100.584 116.45C108.319 115.699 118.676 114.692 128.693 114.087C139.198 113.453 149.49 113.248 156.003 114.294C156.523 114.378 157.056 114.454 157.598 114.532C160.701 114.977 164.114 115.467 167.196 117.581C170.872 120.103 173.906 124.75 176.227 133.538L190.751 163.382L153.871 180.702L146.063 166.222L148.704 164.798L155.165 176.78L186.723 161.959L173.401 134.585L173.363 134.442C171.117 125.868 168.336 122.002 165.499 120.055C163.041 118.368 160.406 117.981 157.299 117.525C156.725 117.44 156.135 117.354 155.527 117.256C149.384 116.269 139.403 116.446 128.874 117.082C118.913 117.683 108.606 118.685 100.863 119.437Z"/>
    <path fill-rule="evenodd" clip-rule="evenodd" d="M89.5756 96.0815C89.9898 96.0815 90.3256 96.4173 90.3256 96.8315V117.437C90.3256 117.851 89.9898 118.187 89.5756 118.187C89.1614 118.187 88.8256 117.851 88.8256 117.437V96.8315C88.8256 96.4173 89.1614 96.0815 89.5756 96.0815Z" />
    <path fill-rule="evenodd" clip-rule="evenodd" d="M14.8894 65.9228C14.8894 65.5085 15.2252 65.1728 15.6394 65.1728H80.4863C80.9005 65.1728 81.2363 65.5085 81.2363 65.9228C81.2363 66.337 80.9005 66.6728 80.4863 66.6728H16.3894V113.8C16.3894 114.214 16.0536 114.55 15.6394 114.55C15.2252 114.55 14.8894 114.214 14.8894 113.8V65.9228Z" />
    <path fill-rule="evenodd" clip-rule="evenodd" d="M15.2676 65.3637C15.4077 65.1611 15.6383 65.0401 15.8846 65.0401H80.3421C80.7563 65.0401 81.0921 65.3759 81.0921 65.7901V81.0264C81.0921 81.2209 81.0166 81.4078 80.8814 81.5476C74.868 87.7709 65.8631 93.3533 53.1298 92.9441L53.1539 92.1945L53.1298 92.9441C39.0638 92.4955 29.5669 85.7644 23.6042 79.1647C20.6254 75.8677 18.5247 72.6002 17.1678 70.1559C16.489 68.9331 15.9953 67.9145 15.6702 67.1987C15.5076 66.8407 15.3871 66.5582 15.3066 66.3636C15.2664 66.2663 15.2361 66.1909 15.2156 66.139L15.1921 66.0789L15.1858 66.0625L15.184 66.0577L15.1834 66.0562C15.1832 66.0557 15.1831 66.0553 15.8846 65.7901L15.1831 66.0553C15.096 65.8248 15.1276 65.5663 15.2676 65.3637ZM17.0186 66.5401C17.0243 66.5528 17.0301 66.5655 17.036 66.5784C17.3463 67.2618 17.8221 68.2441 18.4792 69.4279C19.7943 71.7968 21.8316 74.9652 24.7173 78.1592C30.4836 84.5415 39.6211 91.0125 53.1778 91.4448L53.178 91.4449C65.2427 91.8326 73.7995 86.6304 79.5921 80.7217V66.5401H17.0186Z" />
    <path fill-rule="evenodd" clip-rule="evenodd" d="M44.47 54.6515C44.6019 54.4123 44.8535 54.2638 45.1266 54.2638H59.2113C59.4782 54.2638 59.7251 54.4057 59.8594 54.6364L65.361 64.0846C65.5694 64.4425 65.4482 64.9017 65.0902 65.1101C64.7323 65.3185 64.2732 65.1973 64.0647 64.8394L58.7801 55.7638H45.5694L40.6388 64.6994C40.4386 65.062 39.9824 65.1938 39.6198 64.9937C39.2571 64.7936 39.1253 64.3373 39.3254 63.9747L44.47 54.6515Z" />
    <path fill-rule="evenodd" clip-rule="evenodd" d="M78.8397 11.379C78.8397 10.5505 79.5113 9.87895 80.3397 9.87895H149.003C149.832 9.87895 150.503 10.5505 150.503 11.379V96.7887C150.503 97.6171 149.832 98.2887 149.003 98.2887H80.3397C79.5113 98.2887 78.8397 97.6171 78.8397 96.7887V11.379ZM81.8397 12.879V95.2887H147.503V12.879H81.8397Z" />
    <path fill-rule="evenodd" clip-rule="evenodd" d="M85.9766 19.0174C85.9766 18.189 86.6482 17.5174 87.4766 17.5174H108.074C108.902 17.5174 109.574 18.189 109.574 19.0174V39.6145C109.574 40.4429 108.902 41.1145 108.074 41.1145H87.4766C86.6482 41.1145 85.9766 40.4429 85.9766 39.6145V19.0174ZM88.9766 20.5174V38.1145H106.574V20.5174H88.9766Z" />
    <path fill-rule="evenodd" clip-rule="evenodd" d="M69.5958 1.23071C69.5958 0.816499 69.9316 0.480713 70.3458 0.480713H82.7304C83.1446 0.480713 83.4804 0.816499 83.4804 1.23071C83.4804 1.64493 83.1446 1.98071 82.7304 1.98071H71.0958V13.6153C71.0958 14.0295 70.76 14.3653 70.3458 14.3653C69.9316 14.3653 69.5958 14.0295 69.5958 13.6153V1.23071Z" />
    <path fill-rule="evenodd" clip-rule="evenodd" d="M7.67273 57.8461C7.67273 57.4319 8.00852 57.0961 8.42273 57.0961H20.8073C21.2216 57.0961 21.5573 57.4319 21.5573 57.8461C21.5573 58.2603 21.2216 58.5961 20.8073 58.5961H9.17273V70.2307C9.17273 70.6449 8.83694 70.9807 8.42273 70.9807C8.00852 70.9807 7.67273 70.6449 7.67273 70.2307V57.8461Z" />
    <path fill-rule="evenodd" clip-rule="evenodd" d="M159.557 105.615C159.557 106.03 159.222 106.365 158.807 106.365L146.423 106.365C146.009 106.365 145.673 106.03 145.673 105.615C145.673 105.201 146.009 104.865 146.423 104.865L158.057 104.865L158.057 93.2307C158.057 92.8165 158.393 92.4807 158.807 92.4807C159.222 92.4807 159.557 92.8165 159.557 93.2307L159.557 105.615Z" />
    <path fill-rule="evenodd" clip-rule="evenodd" d="M121.411 21.0754C121.411 20.2469 122.082 19.5754 122.911 19.5754H139.88C140.709 19.5754 141.38 20.2469 141.38 21.0754C141.38 21.9038 140.709 22.5754 139.88 22.5754H122.911C122.082 22.5754 121.411 21.9038 121.411 21.0754Z" />
    <path fill-rule="evenodd" clip-rule="evenodd" d="M121.411 35.621C121.411 34.7926 122.082 34.121 122.911 34.121H139.88C140.709 34.121 141.38 34.7926 141.38 35.621C141.38 36.4495 140.709 37.121 139.88 37.121H122.911C122.082 37.121 121.411 36.4495 121.411 35.621Z" />
    <path fill-rule="evenodd" clip-rule="evenodd" d="M87.4713 84.1046C87.4713 83.2762 88.1429 82.6046 88.9713 82.6046H141.091C141.92 82.6046 142.591 83.2762 142.591 84.1046C142.591 84.9331 141.92 85.6046 141.091 85.6046H88.9713C88.1429 85.6046 87.4713 84.9331 87.4713 84.1046Z" />
    <path fill-rule="evenodd" clip-rule="evenodd" d="M87.4713 67.1344C87.4713 66.3059 88.1429 65.6344 88.9713 65.6344H141.091C141.92 65.6344 142.591 66.3059 142.591 67.1344C142.591 67.9628 141.92 68.6344 141.091 68.6344H88.9713C88.1429 68.6344 87.4713 67.9628 87.4713 67.1344Z" />
    <path fill-rule="evenodd" clip-rule="evenodd" d="M87.4713 52.5894C87.4713 51.761 88.1429 51.0894 88.9713 51.0894H141.091C141.92 51.0894 142.591 51.761 142.591 52.5894C142.591 53.4178 141.92 54.0894 141.091 54.0894H88.9713C88.1429 54.0894 87.4713 53.4178 87.4713 52.5894Z" />
</svg>
