<svg width="10" height="12" viewBox="0 0 10 12" fill="currentColor" xmlns="http://www.w3.org/2000/svg">
    <path d="M9.24951 3.91675C9.24951 3.55957 8.99902 3.31836 8.63721 3.31836H3.26562L2.20337 3.36938L2.96411 2.73853L4.01709 1.7041C4.12842 1.59741 4.20264 1.46753 4.20264 1.28662C4.20264 0.957275 3.9707 0.716064 3.6228 0.716064C3.46973 0.716064 3.31201 0.781006 3.19141 0.901611L0.584473 3.47607C0.468506 3.5874 0.403564 3.75439 0.403564 3.91675C0.403564 4.0791 0.468506 4.24146 0.584473 4.35278L3.19141 6.92725C3.31201 7.04321 3.46973 7.11279 3.6228 7.11279C3.9707 7.11279 4.20264 6.87158 4.20264 6.54224C4.20264 6.36133 4.12842 6.23145 4.01709 6.12012L2.96411 5.09497L2.20337 4.46411L3.26562 4.5105H8.63721C8.99902 4.5105 9.24951 4.26929 9.24951 3.91675ZM9.24951 8.60645C9.24951 8.44409 9.18457 8.2771 9.0686 8.16577L6.46167 5.59131C6.3457 5.4707 6.18335 5.40576 6.03491 5.40576C5.68701 5.40576 5.45508 5.64697 5.45508 5.97632C5.45508 6.15723 5.5293 6.28711 5.63599 6.3938L6.6936 7.42822L7.44971 8.05908L6.39209 8.00806H1.01587C0.654053 8.00806 0.403564 8.24927 0.403564 8.60645C0.403564 8.95898 0.654053 9.2002 1.01587 9.2002H6.39209L7.44971 9.15381L6.6936 9.78467L5.63599 10.8098C5.5293 10.9165 5.45508 11.051 5.45508 11.2319C5.45508 11.5613 5.68701 11.8025 6.03491 11.8025C6.18335 11.8025 6.3457 11.7329 6.46167 11.6169L9.0686 9.04248C9.18457 8.93115 9.24951 8.76416 9.24951 8.60645Z" fill="#FF9500"/>
</svg>
