<svg width="20" height="21" viewBox="0 0 20 21" fill="#697079" xmlns="http://www.w3.org/2000/svg">
<path d="M10 20.9102C15.4492 20.9102 19.9609 16.3984 19.9609 10.9492C19.9609 5.50977 15.4395 0.988281 9.99023 0.988281C4.55078 0.988281 0.0390606 5.50977 0.0390606 10.9492C0.0390606 16.3984 4.56054 20.9102 10 20.9102ZM10 19.25C5.39062 19.25 1.70898 15.5586 1.70898 10.9492C1.70898 6.34961 5.38086 2.64844 9.99023 2.64844C14.5996 2.64844 18.291 6.34961 18.3008 10.9492C18.3105 15.5586 14.6094 19.25 10 19.25ZM14.3457 11.3984C14.3457 9.00586 12.373 7.12109 10.1758 7.12109C10.0879 7.12109 9.98047 7.13086 9.91211 7.14062L10.6055 6.4375C10.7031 6.32031 10.7715 6.16406 10.7715 5.98828C10.7715 5.64648 10.5078 5.36328 10.1562 5.36328C9.98047 5.36328 9.82422 5.44141 9.70703 5.55859L7.83203 7.47266C7.60742 7.70703 7.59765 8.14648 7.83203 8.37109L9.72656 10.2656C9.83398 10.373 10 10.4512 10.1562 10.4512C10.498 10.4512 10.7715 10.1777 10.7715 9.83594C10.7715 9.66016 10.7031 9.50391 10.5859 9.38672L9.63867 8.44922C9.73633 8.42969 9.86328 8.42969 9.99023 8.42969C11.6699 8.42969 12.998 9.75781 12.998 11.4277C12.998 13.1074 11.6699 14.4551 9.99023 14.4551C8.32031 14.4551 6.98242 13.1074 6.98242 11.4277C6.98242 11.0664 6.66992 10.7734 6.30859 10.7734C5.94726 10.7734 5.63476 11.0664 5.63476 11.4277C5.63476 13.8398 7.57812 15.8027 9.99023 15.8027C12.4023 15.8027 14.3457 13.8398 14.3457 11.3984Z"  />
</svg>
