<svg width="24" height="25" viewBox="0 0 24 25" fill="none" xmlns="http://www.w3.org/2000/svg">
    <path fill-rule="evenodd" clip-rule="evenodd" d="M12.2581 5.89258C8.24337 5.89258 5.01613 9.04143 5.01613 12.8926C5.01613 14.5418 5.60605 16.0597 6.59677 17.2582V14.8926H7.59677V18.9828H3.5V17.9828H5.89947C4.72453 16.6014 4.01613 14.8282 4.01613 12.8926C4.01613 8.45946 7.72125 4.89258 12.2581 4.89258V5.89258ZM16.4032 6.39203H20.5V7.39203H18.2427C19.6397 8.82367 20.5 10.7591 20.5 12.8926C20.5 17.3257 16.7949 20.8926 12.2581 20.8926V19.8926C16.2728 19.8926 19.5 16.7437 19.5 12.8926C19.5 10.9746 18.7019 9.23356 17.4032 7.96649V10.3926H16.4032V6.39203Z" fill="#2E3844"/>
</svg>
