<!-- Generated by IcoMoon.io -->
<svg version="1.1" xmlns="http://www.w3.org/2000/svg" fill="currentColor" width="29" height="32" viewBox="0 0 29 32">
<title>reset</title>
<path d="M14.4 31.158c7.411 0 13.547-6.136 13.547-13.547 0-6.534-4.768-12.073-10.984-13.294v-1.886c0-0.943-0.651-1.195-1.368-0.677l-4.237 2.962c-0.611 0.425-0.624 1.063 0 1.501l4.223 2.975c0.73 0.531 1.381 0.279 1.381-0.677v-1.899c5.020 1.142 8.713 5.618 8.713 10.997 0 6.269-5.007 11.289-11.276 11.289s-11.302-5.020-11.289-11.289c0.013-3.772 1.846-7.105 4.675-9.124 0.545-0.412 0.717-1.036 0.385-1.594-0.332-0.545-1.063-0.691-1.647-0.239-3.413 2.484-5.671 6.495-5.671 10.957 0 7.411 6.149 13.547 13.547 13.547z"></path>
</svg>
