<svg width="18" height="24" viewBox="0 0 18 24" fill="none" xmlns="http://www.w3.org/2000/svg">
    <path d="M15.75 7.73438C16.5938 9.01562 17.0156 10.4375 17.0156 12C17.0156 14.1875 16.2188 16.0781 14.625 17.6719C13.0625 19.2344 11.1875 20.0156 9 20.0156V23.0156L5.01562 18.9844L9 15V18C10.6562 18 12.0625 17.4219 13.2188 16.2656C14.4062 15.0781 15 13.6562 15 12C15 11.0625 14.7656 10.125 14.2969 9.1875L15.75 7.73438ZM9 6C7.34375 6 5.92188 6.59375 4.73438 7.78125C3.57812 8.9375 3 10.3438 3 12C3 13 3.23438 13.9375 3.70312 14.8125L2.25 16.2656C1.40625 14.9844 0.984375 13.5625 0.984375 12C0.984375 9.8125 1.76562 7.9375 3.32812 6.375C4.92188 4.78125 6.8125 3.98438 9 3.98438V0.984375L12.9844 5.01562L9 9V6Z" fill="#7489A8"/>
</svg>
