<svg width="10" height="10" viewBox="0 0 10 10" fill="currentColor" xmlns="http://www.w3.org/2000/svg">
    <path fill-rule="evenodd" clip-rule="evenodd" d="M6.23255 1.64998C7.57983 1.64998 8.68022 2.75312 8.68022 4.14891C8.68022 5.54471 7.57983 6.64785 6.23255 6.64785H0.999991C0.641006 6.64785 0.349992 6.93886 0.349992 7.29785C0.349992 7.65683 0.641006 7.94785 0.999991 7.94785H6.23255C8.31783 7.94785 9.98022 6.24248 9.98022 4.14891C9.98022 2.05534 8.31783 0.349976 6.23255 0.349976H1.02092C0.661937 0.349976 0.370922 0.64099 0.370922 0.999976C0.370922 1.35896 0.661937 1.64998 1.02092 1.64998H6.23255Z" fill="#FF3824"/>
    <path fill-rule="evenodd" clip-rule="evenodd" d="M3.42314 4.83445C3.16723 4.5827 2.75568 4.58608 2.50393 4.842L0.536491 6.842C0.288597 7.09399 0.287528 7.4979 0.534086 7.7512L2.50153 9.77248C2.75192 10.0297 3.16344 10.0353 3.42068 9.78489C3.67793 9.53449 3.68348 9.12297 3.43309 8.86573L1.90929 7.30023L3.43068 5.75366C3.68243 5.49774 3.67906 5.0862 3.42314 4.83445Z" fill="#FF3824"/>
</svg>
