<svg width="25" height="25" viewBox="0 0 25 25" fill="#000" xmlns="http://www.w3.org/2000/svg">
    <path d="M20.7837 7.6375L15.4198 1.98223C15.2901 1.84541 15.1603 1.7998 14.9873 1.7998H6.29262C5.03817 1.7998 4 2.89437 4 4.21697V19.7826C4 21.1052 5.03817 22.1998 6.29262 22.1998H18.7074C19.9618 22.1998 21 21.1052 21 19.7826V8.09357C20.9567 7.91114 20.9135 7.77432 20.7837 7.6375ZM15.2036 3.53287L19.3562 7.91114H15.2036V3.53287ZM18.7074 20.9228H6.29262C5.68702 20.9228 5.2112 20.4211 5.2112 19.7826V4.21697C5.2112 3.57848 5.68702 3.0768 6.29262 3.0768H13.9491V8.54964C13.9491 8.73206 14.0356 8.86889 14.1221 9.00571C14.2519 9.14253 14.3817 9.18814 14.5547 9.18814H19.7455V19.7826C19.7455 20.4211 19.2697 20.9228 18.7074 20.9228Z" fill="#000"/>
    <path fill-rule="evenodd" clip-rule="evenodd" d="M16.4665 13.36H8.5332V12H16.4665V13.36Z" fill="#000"/>
    <path fill-rule="evenodd" clip-rule="evenodd" d="M16.4665 17.8932H8.5332V16.5332H16.4665V17.8932Z" fill="#000"/>
</svg>
