<svg width="34" height="32" viewBox="0 0 34 32" fill="none" xmlns="http://www.w3.org/2000/svg">
<path d="M11.208 19.5194C13.9796 19.5194 16.3886 17.0327 16.3886 13.7948C16.3886 10.5957 13.9796 8.22559 11.208 8.22559C8.43632 8.22559 6.02733 10.6475 6.02733 13.8207C6.02733 17.0327 8.42337 19.5194 11.208 19.5194ZM3.06142 31.5125H19.3286C21.3749 31.5125 22.1002 30.9297 22.1002 29.79C22.1002 26.4485 17.9169 21.8377 11.195 21.8377C4.48609 21.8377 0.302734 26.4485 0.302734 29.79C0.302734 30.9297 1.02802 31.5125 3.06142 31.5125Z" />
<path d="M33.8092 5.15091L29.0763 0.160966C28.9618 0.0402414 28.8473 0 28.6947 0H21.0229C19.916 0 19 0.965795 19 2.1328V17.8672C19 19.0342 19.916 20 21.0229 20H31.9771C33.084 20 34 19.0342 34 17.8672V5.55332C33.9618 5.39235 33.9237 5.27163 33.8092 5.15091ZM28.8855 1.52917L32.5496 5.39235H28.8855V1.52917ZM31.9771 18.8732H21.0229C20.4885 18.8732 20.0687 18.4306 20.0687 17.8672V2.1328C20.0687 1.56942 20.4885 1.12676 21.0229 1.12676H27.7786V5.95573C27.7786 6.1167 27.855 6.23742 27.9313 6.35815C28.0458 6.47887 28.1603 6.51911 28.313 6.51911H32.8931V17.8672C32.8931 18.4306 32.4733 18.8732 31.9771 18.8732Z" />
<path fill-rule="evenodd" clip-rule="evenodd" d="M30 10.9998H23V9.7998H30V10.9998Z" />
<path fill-rule="evenodd" clip-rule="evenodd" d="M30 14.9998H23V13.7998H30V14.9998Z" />
</svg>
