<!-- Generated by IcoMoon.io -->
<svg version="1.1" xmlns="http://www.w3.org/2000/svg" fill="currentColor" width="32" height="32" viewBox="0 0 32 32">
<title>settings</title>
<path d="M31.795 22.002c0.354-0.932-0.28-1.902-1.060-2.523-0.982-0.783-1.608-1.993-1.595-3.344 0.013-1.355 0.664-2.559 1.667-3.326 0.79-0.604 1.442-1.556 1.106-2.492-0.151-0.421-0.318-0.835-0.502-1.241-0.41-0.909-1.543-1.144-2.533-1.031-1.249 0.143-2.545-0.271-3.502-1.24-0.948-0.965-1.337-2.272-1.172-3.519 0.131-0.987-0.083-2.123-0.982-2.55-0.404-0.192-0.818-0.368-1.24-0.528-0.928-0.351-1.887 0.282-2.503 1.060-0.783 0.989-1.997 1.619-3.352 1.606-1.36-0.017-2.559-0.67-3.323-1.665-0.606-0.79-1.56-1.443-2.498-1.107-0.42 0.151-0.833 0.318-1.237 0.5-0.909 0.41-1.144 1.543-1.031 2.533 0.143 1.249-0.271 2.545-1.24 3.502-0.965 0.948-2.272 1.337-3.519 1.172-0.987-0.131-2.123 0.083-2.55 0.982-0.192 0.404-0.368 0.818-0.528 1.24-0.351 0.928 0.283 1.887 1.060 2.503 0.989 0.783 1.619 1.997 1.606 3.352s-0.664 2.559-1.667 3.326c-0.79 0.603-1.442 1.556-1.106 2.492 0.151 0.421 0.318 0.835 0.502 1.241 0.41 0.909 1.543 1.144 2.533 1.031 1.249-0.143 2.545 0.271 3.502 1.24 0.948 0.965 1.337 2.272 1.172 3.519-0.131 0.987 0.083 2.123 0.982 2.55 0.404 0.192 0.818 0.369 1.24 0.528 0.927 0.351 1.887-0.283 2.503-1.060 0.783-0.989 1.997-1.619 3.353-1.606s2.559 0.663 3.326 1.667c0.604 0.79 1.556 1.442 2.492 1.106 0.421-0.151 0.835-0.318 1.241-0.502 0.909-0.41 1.145-1.543 1.032-2.534-0.142-1.253 0.273-2.554 1.238-3.502s2.272-1.337 3.519-1.172c0.986 0.131 2.122-0.084 2.546-0.984 0.189-0.401 0.362-0.81 0.52-1.226zM15.942 22.066c-3.352-0.028-6.033-2.771-6.006-6.124s2.771-6.033 6.124-6.006c3.352 0.027 6.033 2.771 6.006 6.124s-2.771 6.033-6.124 6.006z"></path>
</svg>
