<svg width="34" height="35" viewBox="0 0 34 35" fill="none" xmlns="http://www.w3.org/2000/svg">
<rect y="0.479492" width="34" height="34" rx="4" fill="#1B7FAA"/>
<path d="M12.2411 27.4795V14.7703H8.29688V27.4795H12.2411ZM10.2478 13.0701C11.5201 13.0701 12.5379 12.0075 12.5379 10.7323C12.5379 9.49963 11.5201 8.47949 10.2478 8.47949C9.01786 8.47949 8 9.49963 8 10.7323C8 12.0075 9.01786 13.0701 10.2478 13.0701ZM26.9576 27.4795H27V20.5086C27 17.1081 26.2366 14.4728 22.25 14.4728C20.3415 14.4728 19.0692 15.5354 18.5179 16.513H18.4754V14.7703H14.7009V27.4795H18.6451V21.1887C18.6451 19.5309 18.942 17.9582 20.9777 17.9582C23.0134 17.9582 23.0558 19.8285 23.0558 21.3162V27.4795H26.9576Z" fill="white"/>
</svg>
