<svg width="42" height="42" viewBox="0 0 42 42" fill="none" xmlns="http://www.w3.org/2000/svg">
<path d="M21 41C32.0457 41 41 32.0457 41 21C41 9.9543 32.0457 1 21 1C9.9543 1 1 9.9543 1 21C1 32.0457 9.9543 41 21 41Z" stroke="#000" stroke-width="1.5" stroke-linecap="round" stroke-linejoin="round"/>
<g clip-path="url(#clip0_11256_5063)">
<path d="M15.1816 21V26.8182C15.1816 27.204 15.3349 27.5739 15.6077 27.8467C15.8804 28.1195 16.2504 28.2727 16.6362 28.2727H25.3635C25.7492 28.2727 26.1192 28.1195 26.392 27.8467C26.6648 27.5739 26.818 27.204 26.818 26.8182V21" stroke="#000" stroke-width="1.5" stroke-linecap="round" stroke-linejoin="round"/>
<path d="M23.91 16.6364L21.0009 13.7273L18.0918 16.6364" stroke="#000" stroke-width="1.5" stroke-linecap="round" stroke-linejoin="round"/>
<path d="M21 13.7273V23.1818" stroke="#000" stroke-width="1.5" stroke-linecap="round" stroke-linejoin="round"/>
</g>
<defs>
<clipPath id="clip0_11256_5063">
<rect width="17.4545" height="17.4545" fill="white" transform="translate(12.2734 12.2727)"/>
</clipPath>
</defs>
</svg>
