<svg width="105" height="104" viewBox="0 0 105 104" fill="white" xmlns="http://www.w3.org/2000/svg">
    <path fill-rule="evenodd" clip-rule="evenodd" d="M18.3387 37.1049C18.3387 20.6282 31.6957 7.27117 48.1724 7.27117C52.7264 7.27117 57.0408 8.2912 60.9008 10.1148C61.1505 10.2327 61.4485 10.126 61.5665 9.87628C61.6844 9.6266 61.5776 9.32857 61.3279 9.21061C57.3372 7.32525 52.8772 6.27117 48.1724 6.27117C31.1434 6.27117 17.3387 20.0759 17.3387 37.1049C17.3387 51.4424 27.124 63.4933 40.3801 66.9454L33.554 73.3588C21.6753 68.2706 12.3793 57.6502 9.51464 44.019C7.81827 35.9205 8.60287 27.8793 11.3927 20.6977C11.4927 20.4403 11.3651 20.1506 11.1077 20.0506C10.8503 19.9506 10.5605 20.0782 10.4605 20.3356C7.60192 27.6944 6.79902 35.9325 8.53595 44.2243L8.53602 44.2246C11.4382 58.0341 20.7856 68.8273 32.7605 74.1043L10.56 94.9624C10.1575 95.3405 10.1377 95.9734 10.5159 96.3759C10.8941 96.7784 11.5269 96.7981 11.9294 96.42L51.243 59.4837C51.6455 59.1056 51.6652 58.4727 51.287 58.0702C50.9089 57.6677 50.276 57.648 49.8735 58.0261L41.2471 66.1308C28.1099 63.0083 18.3387 51.1971 18.3387 37.1049ZM55.67 67.0206C55.9379 66.9537 56.1008 66.6822 56.0339 66.4143C55.967 66.1464 55.6955 65.9835 55.4276 66.0504C53.1056 66.6305 50.6753 66.9387 48.1724 66.9387C47.8963 66.9387 47.6724 67.1625 47.6724 67.4387C47.6724 67.7148 47.8963 67.9387 48.1724 67.9387C50.7577 67.9387 53.2693 67.6204 55.67 67.0206ZM74.6727 7.87866C74.5013 7.70687 74.2829 7.61045 74.0588 7.58941C73.9728 7.58132 73.8859 7.58434 73.8005 7.59847C73.6011 7.63147 73.4099 7.72501 73.2563 7.87905L41.0148 40.2272L34.967 34.1662C34.7794 33.9782 34.5248 33.8726 34.2592 33.8726C33.9936 33.8726 33.7389 33.9782 33.5513 34.1662L26.4445 41.2885C26.0565 41.6774 26.0548 42.3065 26.4408 42.6974L40.3036 56.7384C40.4908 56.9281 40.7461 57.0351 41.0127 57.0358C41.2792 57.0365 41.535 56.9307 41.7233 56.742L74.6727 23.7021C75.0627 23.3111 75.0618 22.6779 74.6708 22.2879C74.2797 21.8979 73.6465 21.8988 73.2565 22.2898L41.0187 54.6161L28.5614 41.9986L34.2592 36.2883L40.3073 42.3497C40.495 42.5377 40.7498 42.6434 41.0155 42.6433C41.2812 42.6433 41.5359 42.5374 41.7234 42.3493L73.9651 10.001L85.9529 22.015L73.2574 34.7207C73.1931 34.7851 73.1394 34.856 73.0963 34.9313C70.4101 35.0478 68.2946 37.2661 68.2946 39.9594V56.0044C67.0207 54.699 65.2435 53.8883 63.2769 53.8883H60.2095V72.8882C60.2095 77.0778 61.5875 81.1502 64.1297 84.4842L68.3315 90.5352V98.2693C68.3315 98.8216 68.7792 99.2693 69.3315 99.2693C69.8838 99.2693 70.3315 98.8216 70.3315 98.2693V89.909L65.7466 83.3062L65.7327 83.288C63.4476 80.2986 62.2095 76.6456 62.2095 72.8882V55.8883H63.2769C66.0452 55.8883 68.2946 58.1395 68.2946 60.9191V68.8369H70.2946V39.9594C70.2946 38.2867 71.6424 36.9265 73.3186 36.9265C74.9824 36.9265 76.3427 38.2742 76.3427 39.9594V52.7974L76.3423 52.8345L76.3422 52.872V60.9192C76.3422 61.4715 76.7899 61.9192 77.3422 61.9192C77.4114 61.9192 77.479 61.9122 77.5443 61.8988L77.5666 61.894L77.5805 61.8907L77.6029 61.885C77.6154 61.8816 77.6278 61.878 77.6401 61.8742C78.0471 61.7476 78.3427 61.3679 78.3427 60.9191V52.814C78.3734 51.1713 79.7063 49.8577 81.3478 49.8577C83.0085 49.8577 84.3534 51.2023 84.3534 52.872V60.9192C84.3534 61.4715 84.8011 61.9192 85.3534 61.9192L85.3626 61.9192L85.3718 61.9192C85.9241 61.9192 86.3718 61.4715 86.3718 60.9192V52.872C86.3718 51.2023 87.7167 49.8577 89.3774 49.8577C91.0382 49.8577 92.383 51.2023 92.383 52.872V60.9192C92.383 61.4715 92.8307 61.9192 93.383 61.9192L93.3982 61.9191L93.4126 61.9188C93.9602 61.9133 94.4023 61.4677 94.4023 60.9189V56.9045C94.4023 55.2348 95.7472 53.8902 97.408 53.8902C99.0687 53.8902 100.414 55.2348 100.414 56.9045V71.0557C100.176 77.1644 98.8548 83.1627 96.4861 88.7984L96.408 88.9843V98.2691C96.408 98.8213 96.8557 99.2691 97.408 99.2691C97.9603 99.2691 98.408 98.8213 98.408 98.2691V89.3865C100.824 83.5758 102.171 77.3993 102.413 71.1135L102.414 71.0942V56.9045C102.414 54.1344 100.177 51.8902 97.408 51.8902C96.2703 51.8902 95.2227 52.2689 94.383 52.9071V52.872C94.383 50.1019 92.1468 47.8577 89.3774 47.8577C87.7317 47.8577 86.2744 48.6501 85.3626 49.8745C84.4508 48.6501 82.9934 47.8577 81.3478 47.8577C80.2191 47.8577 79.179 48.2304 78.3427 48.8596V39.9594C78.3427 37.9239 77.1424 36.181 75.4198 35.3862L88.0735 22.7223C88.4634 22.3321 88.4636 21.6997 88.074 21.3092L74.6727 7.87866ZM90.0856 7.87914C89.6958 7.48793 89.0626 7.4868 88.6714 7.87663C88.2802 8.26645 88.2791 8.89962 88.6689 9.29084L101.348 22.015L88.6694 34.7212C88.2793 35.1122 88.28 35.7453 88.6709 36.1354C89.0619 36.5255 89.695 36.5248 90.0851 36.1339L103.468 22.7219C103.857 22.3317 103.857 21.7001 103.468 21.3097L90.0856 7.87914ZM39.8774 75.9944C39.9394 75.7253 40.2078 75.5574 40.4769 75.6194C45.2896 76.7273 50.369 76.9743 55.5068 76.2229C55.78 76.183 56.0339 76.3721 56.0738 76.6453C56.1138 76.9185 55.9247 77.1724 55.6515 77.2124C50.3885 77.982 45.1839 77.7292 40.2525 76.5939C39.9834 76.5319 39.8155 76.2635 39.8774 75.9944ZM16.3017 82.3478C16.4913 82.5486 16.4823 82.865 16.2816 83.0546L2.2504 96.3096C2.04967 96.4992 1.73321 96.4902 1.54358 96.2895C1.35395 96.0887 1.36295 95.7723 1.56369 95.5827L15.5949 82.3277C15.7956 82.1381 16.1121 82.1471 16.3017 82.3478Z" />
</svg>
