<svg width="189" height="189" viewBox="0 0 189 189" fill="#34C759" xmlns="http://www.w3.org/2000/svg">
    <path fill-rule="evenodd" clip-rule="evenodd" d="M61.0414 6.07138C71.4219 2.14689 82.6743 0 94.4254 0C146.575 0 188.851 42.2756 188.851 94.4254C188.851 146.575 146.575 188.851 94.4254 188.851C42.2756 188.851 0 146.575 0 94.4254C0 81.2865 2.68368 68.7712 7.53489 57.4016C7.75163 56.8936 8.33913 56.6575 8.84711 56.8742C9.35509 57.091 9.59118 57.6785 9.37444 58.1865C4.6272 69.3125 2 81.5611 2 94.4254C2 145.471 43.3801 186.851 94.4254 186.851C145.471 186.851 186.851 145.471 186.851 94.4254C186.851 43.3801 145.471 2 94.4254 2C82.9195 2 71.9066 4.10181 61.7487 7.94214C61.2321 8.13745 60.655 7.877 60.4597 7.3604C60.2644 6.8438 60.5248 6.26669 61.0414 6.07138Z" />
    <path fill-rule="evenodd" clip-rule="evenodd" d="M53.4578 10.4319C53.7056 10.9254 53.5064 11.5265 53.0128 11.7743C50.7207 12.9251 48.4831 14.1685 46.3047 15.4995C45.8334 15.7875 45.218 15.6389 44.93 15.1676C44.642 14.6963 44.7906 14.0808 45.2619 13.7929C47.4874 12.4331 49.7735 11.1627 52.1154 9.98691C52.609 9.7391 53.21 9.93832 53.4578 10.4319ZM34.0274 23.1392C34.3891 23.5566 34.3439 24.1882 33.9266 24.5499C31.9923 26.226 30.1282 27.9811 28.3395 29.8102C26.8263 31.3577 25.3669 32.9581 23.9646 34.6083C23.6069 35.0292 22.9758 35.0804 22.555 34.7228C22.1341 34.3652 22.0829 33.7341 22.4405 33.3132C23.8731 31.6274 25.3638 29.9926 26.9096 28.4119L26.9096 28.4118C28.7368 26.5434 30.6409 24.7506 32.6168 23.0384C33.0342 22.6767 33.6657 22.7219 34.0274 23.1392ZM15.9623 43.6815C16.4289 43.9769 16.5678 44.5946 16.2724 45.0613C15.1166 46.8873 14.023 48.7565 12.9948 50.666C12.9 50.842 12.8058 51.0183 12.7121 51.195C12.6065 51.3943 12.443 51.5432 12.2533 51.632C12.2889 51.8384 12.2602 52.0576 12.1571 52.2583C12.0658 52.4361 11.975 52.6142 11.8849 52.7926C11.6357 53.2855 11.0342 53.4831 10.5413 53.2339C10.0484 52.9848 9.85079 52.3832 10.0999 51.8903C10.1921 51.708 10.2848 51.526 10.3781 51.3444C10.4834 51.1396 10.6495 50.9865 10.843 50.8959C10.8067 50.6853 10.8373 50.4615 10.9451 50.2581C11.0408 50.0777 11.1371 49.8975 11.2338 49.7178L11.2339 49.7178C12.2844 47.7668 13.4017 45.8571 14.5825 43.9916C14.8779 43.525 15.4956 43.3861 15.9623 43.6815Z" />
    <path fill-rule="evenodd" clip-rule="evenodd" d="M9.44141 94.4254C9.44141 47.49 47.4899 9.44159 94.4253 9.44159C141.361 9.44159 179.409 47.49 179.409 94.4254C179.409 106.157 177.031 117.336 172.73 127.505C172.515 128.014 171.929 128.252 171.42 128.036C170.911 127.821 170.673 127.235 170.888 126.726C175.087 116.799 177.409 105.885 177.409 94.4254C177.409 48.5946 140.256 11.4416 94.4253 11.4416C48.5944 11.4416 11.4414 48.5946 11.4414 94.4254C11.4414 140.256 48.5944 177.409 94.4253 177.409C105.786 177.409 116.611 175.127 126.469 170.997C126.978 170.783 127.564 171.023 127.778 171.533C127.991 172.042 127.751 172.628 127.242 172.841C117.143 177.072 106.056 179.409 94.4253 179.409C47.4899 179.409 9.44141 141.361 9.44141 94.4254Z"/>
    <path fill-rule="evenodd" clip-rule="evenodd" d="M170.627 129.793C171.125 130.032 171.335 130.629 171.097 131.127C170.017 133.378 168.841 135.574 167.575 137.71C167.293 138.185 166.68 138.342 166.205 138.06C165.73 137.778 165.573 137.165 165.855 136.69C167.091 134.604 168.239 132.46 169.293 130.262C169.532 129.764 170.129 129.554 170.627 129.793ZM158.767 148.414C159.185 148.774 159.233 149.406 158.873 149.824C157.249 151.712 155.543 153.527 153.762 155.265C152.388 156.605 150.97 157.898 149.509 159.143C149.088 159.501 148.457 159.45 148.099 159.03C147.741 158.61 147.791 157.978 148.212 157.62C149.639 156.405 151.024 155.142 152.365 153.833L152.986 154.47L152.365 153.833C154.105 152.136 155.771 150.363 157.357 148.52C157.717 148.101 158.348 148.054 158.767 148.414ZM140.57 164.614C140.868 165.079 140.733 165.698 140.268 165.996C138.656 167.031 137.006 168.013 135.322 168.939C134.838 169.205 134.23 169.029 133.964 168.545C133.698 168.061 133.874 167.453 134.358 167.187C136.003 166.282 137.614 165.323 139.188 164.313C139.653 164.015 140.271 164.15 140.57 164.614Z" />
    <path fill-rule="evenodd" clip-rule="evenodd" d="M121.122 56.2643C123.962 53.4257 128.564 53.4258 131.404 56.2642L143.687 68.5471C146.527 71.3865 146.527 75.9892 143.687 78.8286L90.2042 132.312C87.3632 135.153 82.7564 135.152 79.9178 132.308L45.1926 97.5226C42.3575 94.6824 42.359 90.0831 45.1969 87.2453L57.483 74.9591C57.4831 74.9591 57.483 74.9591 57.483 74.9591C60.3218 72.1196 64.9253 72.1197 67.7647 74.959L83.9993 91.1936C83.9994 91.1937 83.9992 91.1936 83.9993 91.1936C84.6057 91.7993 85.5876 91.7991 86.1928 91.1939L121.122 56.2643ZM122.536 57.6787C122.536 57.6788 122.536 57.6787 122.536 57.6787L87.6071 92.6081C86.2204 93.9948 83.9726 93.9944 82.5856 92.6084L66.3504 76.3732C64.292 74.3148 60.955 74.3149 58.8974 76.3731L46.6111 88.6595C44.554 90.7166 44.5527 94.0505 46.6081 96.1096L81.3332 130.895C83.3909 132.956 86.7304 132.958 88.79 130.898L142.273 77.4144C144.331 75.356 144.331 72.0197 142.273 69.9613L129.991 57.6788C127.931 55.6209 124.595 55.6211 122.536 57.6787Z" />
    <path fill-rule="evenodd" clip-rule="evenodd" d="M61.9367 79.4102C62.3277 79.0204 62.9607 79.0212 63.3506 79.4121L71.0521 87.1316C71.4422 87.5226 71.4415 88.1558 71.0505 88.5458C70.6595 88.9359 70.0264 88.9351 69.6363 88.5442L62.6408 81.5324L51.7711 92.3689L85.7706 126.428C86.1607 126.818 86.1602 127.452 85.7693 127.842C85.3785 128.232 84.7453 128.231 84.3551 127.841L49.6487 93.0737C49.4613 92.886 49.3561 92.6314 49.3564 92.3661C49.3568 92.1007 49.4625 91.8464 49.6504 91.6591L61.9367 79.4102Z" />
    <path fill-rule="evenodd" clip-rule="evenodd" d="M126.283 60.4238C126.548 60.424 126.803 60.5298 126.99 60.7178L139.235 72.9997C139.624 73.3905 139.624 74.023 139.233 74.4131L100.591 113.031C100.2 113.421 99.5669 113.421 99.1765 113.03C98.7861 112.64 98.7863 112.006 99.1769 111.616L137.113 73.7045L126.281 62.8391L111.796 77.3245C111.405 77.715 110.772 77.715 110.381 77.3245C109.991 76.934 109.991 76.3008 110.381 75.9103L125.575 60.7167C125.763 60.529 126.017 60.4236 126.283 60.4238Z" />
</svg>
