<svg width="18" height="19" viewBox="0 0 18 19" fill="none" xmlns="http://www.w3.org/2000/svg">
    <path d="M5.18994 18.5151H12.8018C13.9888 18.5151 14.7856 17.7432 14.8437 16.5562L15.4165 4.48682H16.4126C16.7529 4.48682 17.0352 4.19629 17.0352 3.85596C17.0352 3.51562 16.7529 3.2334 16.4126 3.2334L12.6191 3.2334L12.6191 1.96338C12.6191 0.759766 11.8389 0.0292969 10.5605 0.0292969H7.41455C6.13623 0.0292969 5.35596 0.759766 5.35596 1.96338L5.35596 3.2334L1.5791 3.2334C1.24707 3.2334 0.956541 3.51562 0.956541 3.85596C0.956541 4.20459 1.24707 4.48682 1.5791 4.48682H2.57519L3.14795 16.5645C3.20605 17.7515 3.99463 18.5151 5.18994 18.5151ZM6.67578 2.04639C6.67578 1.57324 6.99951 1.26611 7.49756 1.26611H10.4775C10.9756 1.26611 11.2993 1.57324 11.2993 2.04639L11.2993 3.2334H6.67578L6.67578 2.04639ZM5.30615 17.2617C4.83301 17.2617 4.47607 16.9048 4.45117 16.415L3.87012 4.48682H14.0801L13.5405 16.415C13.5156 16.9131 13.1587 17.2617 12.6689 17.2617H5.30615ZM6.53467 15.8423C6.8501 15.8423 7.05762 15.6431 7.04931 15.3525L6.80029 6.4707C6.79199 6.18018 6.57617 5.98926 6.27734 5.98926C5.96191 5.98926 5.75439 6.18848 5.76269 6.479L6.02002 15.3525C6.02832 15.6514 6.22754 15.8423 6.53467 15.8423ZM9 15.8423C9.31543 15.8423 9.53125 15.6431 9.53125 15.3525L9.53125 6.479C9.53125 6.18848 9.31543 5.98926 9 5.98926C8.68457 5.98926 8.46045 6.18848 8.46045 6.479L8.46045 15.3525C8.46045 15.6431 8.68457 15.8423 9 15.8423ZM11.457 15.8423C11.7559 15.8423 11.9634 15.6514 11.9717 15.3525L12.229 6.479C12.2373 6.18848 12.0215 5.98926 11.7061 5.98926C11.4155 5.98926 11.1997 6.18018 11.1914 6.479L10.9424 15.3525C10.9341 15.6431 11.1416 15.8423 11.457 15.8423Z" fill="#697079"/>
</svg>
