<svg width="25" height="21" viewBox="0 0 25 21" fill="none" xmlns="http://www.w3.org/2000/svg">
<path d="M23.9219 9.91406H22.584C22.0566 4.94336 17.7695 0.988281 12.6816 0.988281C9.70312 0.988281 7.01758 2.33594 5.18164 4.45508C4.81055 4.875 4.85938 5.39258 5.25 5.66602C5.63086 5.93945 6.08984 5.85156 6.41211 5.49023C7.93555 3.75195 10.1816 2.64844 12.6816 2.64844C16.9297 2.64844 20.3965 5.80273 20.9043 9.91406H19.4492C18.7559 9.91406 18.5801 10.3828 18.9512 10.9199L21.1387 14.0352C21.4512 14.4844 21.9199 14.4941 22.2422 14.0352L24.4199 10.9297C24.8105 10.3828 24.625 9.91406 23.9219 9.91406ZM1.43164 11.9941H2.7793C3.30664 16.9648 7.58398 20.9102 12.6816 20.9102C15.6602 20.9102 18.3555 19.5527 20.1914 17.4434C20.5527 17.0234 20.5039 16.4961 20.123 16.2227C19.7422 15.9492 19.2734 16.0469 18.9609 16.4082C17.4473 18.1562 15.2012 19.25 12.6816 19.25C8.42383 19.25 4.95703 16.1055 4.44922 11.9941H5.91406C6.60742 11.9941 6.7832 11.5156 6.41211 10.9883L4.22461 7.87305C3.91211 7.42383 3.44336 7.41406 3.12109 7.87305L0.933594 10.9785C0.552734 11.5156 0.728516 11.9941 1.43164 11.9941Z" fill="#697079"/>
</svg>
