<svg width="150" height="150" viewBox="0 0 150 150" fill="none" xmlns="http://www.w3.org/2000/svg">
<path d="M50.3 16.9492H97.7V14.9492H50.3V16.9492ZM97.7 16.9492C102.264 16.9492 106 20.7346 106 25.4492H108C108 19.6704 103.408 14.9492 97.7 14.9492V16.9492ZM106 25.4492V120.449H108V25.4492H106ZM106 120.449C106 125.164 102.264 128.949 97.7 128.949V130.949C103.408 130.949 108 126.228 108 120.449H106ZM97.7 128.949H50.3V130.949H97.7V128.949ZM50.3 128.949C45.736 128.949 42 125.164 42 120.449H40C40 126.228 44.5915 130.949 50.3 130.949V128.949ZM42 120.449V25.4492H40V120.449H42ZM42 25.4492C42 20.7346 45.736 16.9492 50.3 16.9492V14.9492C44.5915 14.9492 40 19.6704 40 25.4492H42Z" fill="#000"/>
<path d="M41 27.9492H107" stroke="#000" stroke-width="2" stroke-linecap="round" stroke-linejoin="round"/>
<circle cx="97.5122" cy="114.706" r="26.5122" fill="#fff" stroke="#000" stroke-width="2"/>
<path d="M113.56 107.725L107.599 102.096L93.5201 116.077L87.0839 109.685L81.4629 116.077L93.3944 127.315H93.6709L113.56 107.725Z" fill="#fff" stroke="#000" stroke-width="2"/>
<rect x="25" y="41.9492" width="99" height="37" rx="5" fill="#000"/>
<path d="M50 64.6615C48.8091 63.6216 46.7668 62.8628 45.1836 62.8815C44.7101 63.2281 43.7727 64.2071 43.4378 64.6802C42.5434 64.3804 41.5677 63.4249 40.7068 62.3943C39.8459 61.3685 39.0758 60.2443 38.9467 59.3262C39.4872 59.0967 40.6494 58.3847 41.0894 57.9959C41.4147 56.4782 41.0464 54.3703 40.2381 53.0212C39.3006 52.8667 37.0335 52.9135 35.3978 53.6396C34.7186 55.5976 34.4938 60.0007 38.234 64.6381C42.156 69.1302 46.6711 69.1209 48.7564 68.8539C49.8039 67.4205 49.9713 65.5937 49.9952 64.6615H50Z" fill="#fff"/>
<path d="M60 66.8394L72.8902 53.9492" stroke="#fff" stroke-width="2" stroke-miterlimit="10"/>
<path d="M72.8902 66.8394L60 53.9492" stroke="#fff" stroke-width="2" stroke-miterlimit="10"/>
<path d="M78.8906 66.8394L91.7808 53.9492" stroke="#fff" stroke-width="2" stroke-miterlimit="10"/>
<path d="M91.7808 66.8394L78.8906 53.9492" stroke="#fff" stroke-width="2" stroke-miterlimit="10"/>
<path d="M97.7812 66.8394L110.671 53.9492" stroke="#fff" stroke-width="2" stroke-miterlimit="10"/>
<path d="M110.671 66.8394L97.7812 53.9492" stroke="#fff" stroke-width="2" stroke-miterlimit="10"/>
</svg>
