<svg xmlns="http://www.w3.org/2000/svg" width="150" height="151" viewBox="0 0 150 151" fill="none">
<path d="M128.118 77.4724C126.872 84.0739 121.962 95.3475 111.601 94.7042C111 94.6739 110.373 94.5911 109.735 94.4706L89.1444 90.5832C94.0168 85.3612 97.1915 78.7911 98.4963 71.8799C99.8011 64.9687 99.2425 57.6819 96.6094 51.043L117.2 54.9304C128.882 57.1358 129.425 70.5497 128.118 77.4724Z" fill="black" stroke="black" stroke-width="2" stroke-linecap="round" stroke-linejoin="round"/>
<path d="M52.5312 20.4668C62.9612 22.4359 74.9362 46.9519 96.6101 51.0438" stroke="black" stroke-width="2" stroke-linecap="round" stroke-linejoin="round"/>
<path d="M37.7641 98.6855C48.1941 100.655 67.4717 86.49 89.1457 90.5819" stroke="black" stroke-width="2" stroke-linecap="round" stroke-linejoin="round"/>
<path d="M98.9401 92.4348L77.4062 123.539C74.9747 127.05 76.9658 131.906 81.1663 132.7C83.4584 133.132 85.7871 132.177 87.1161 130.262L111.717 94.7342" stroke="black" stroke-width="2" stroke-linecap="round" stroke-linejoin="round"/>
<path d="M89.572 90.6638L68.038 121.768C65.6066 125.279 67.5977 130.136 71.7981 130.929L81.1617 132.696" stroke="black" stroke-width="2" stroke-linecap="round" stroke-linejoin="round"/>
<path d="M78.6953 106.373L88.0646 108.142" stroke="black" stroke-width="2" stroke-linecap="round" stroke-linejoin="round"/>
<path d="M37.8855 98.6637C48.8676 100.737 61.0742 84.9177 65.1498 63.3302C69.2254 41.7427 63.6266 22.5618 52.6445 20.4885C41.6625 18.4152 29.4559 34.2345 25.3803 55.822C21.3047 77.4095 26.9035 96.5904 37.8855 98.6637Z" fill="black" stroke="black" stroke-width="2" stroke-linecap="round" stroke-linejoin="round"/>
<path d="M43.2326 70.3495C46.2614 70.9213 49.6273 66.5615 50.7506 60.6116C51.8739 54.6617 50.3292 49.3747 47.3005 48.8029C44.2717 48.2311 40.9058 52.5909 39.7825 58.5409C38.6592 64.4908 40.2038 69.7777 43.2326 70.3495Z" stroke="white" stroke-width="2" stroke-linecap="round" stroke-linejoin="round"/>
<path d="M47.2966 48.8044L68.4714 49.6186" stroke="white" stroke-width="2" stroke-linecap="round" stroke-linejoin="round"/>
<path d="M43.2285 70.3555L64.0979 78.4845" stroke="white" stroke-width="2" stroke-linecap="round" stroke-linejoin="round"/>
<path d="M128.699 7.82422L132.645 15.8786L140.699 19.8242L132.645 23.7699L128.699 31.8242L124.754 23.7699L116.699 19.8242L124.754 15.8786L128.699 7.82422Z" fill="black"/>
<path d="M110.699 21.8242L113.33 27.1938L118.699 29.8242L113.33 32.4547L110.699 37.8242L108.069 32.4547L102.699 29.8242L108.069 27.1938L110.699 21.8242Z" fill="black"/>
<path d="M32.6992 120.824L35.3297 126.194L40.6992 128.824L35.3297 131.455L32.6992 136.824L30.0688 131.455L24.6992 128.824L30.0688 126.194L32.6992 120.824Z" fill="black"/>
<path d="M19 30.7344L25.5859 37.0273" stroke="black" stroke-width="2" stroke-linecap="round"/>
<path d="M6.00094 47.7966L19 50.7964" stroke="black" stroke-width="2" stroke-linecap="round"/>
<path d="M9.00041 69.7343L17.9999 68.1692" stroke="black" stroke-width="2" stroke-linecap="round"/>
</svg>